<svg width="99" height="130" viewBox="0 0 99 130" fill="none" xmlns="http://www.w3.org/2000/svg">
<path d="M86.7143 0.96344L64.6711 8.12064C65.047 9.27433 65.4228 10.428 65.7986 11.5817C66.3446 13.2517 71.7465 13.006 77.8692 11.0084C83.9919 9.01084 88.5091 6.05537 87.9667 4.3818C87.9275 4.23937 86.7143 0.96344 86.7143 0.96344Z" fill="#C2D0FF"/>
<path d="M86.9112 1.10583C87.4571 2.7794 82.9364 5.73486 76.8172 7.73247C70.698 9.73007 65.2889 9.97577 64.7465 8.30576C64.2042 6.63574 68.7213 3.67672 74.8405 1.67912C80.9597 -0.318488 86.3581 -0.564183 86.9112 1.10583Z" fill="#D4DEFF"/>
<path d="M67.7349 78.8273C64.5203 85.1277 59.5057 90.3351 53.3253 93.7911C47.1449 97.2471 40.0763 98.7964 33.0136 98.243C25.9509 97.6896 19.2112 95.0583 13.647 90.6821C8.08281 86.3058 3.94408 80.3811 1.75417 73.6573C-0.435747 66.9335 -0.578453 59.7126 1.34415 52.9078C3.26674 46.103 7.16827 40.0201 12.5553 35.4283C17.9422 30.8366 24.5727 27.9423 31.6081 27.1114C38.6435 26.2806 45.7678 27.5505 52.0799 30.7606C56.2704 32.8909 59.9994 35.824 63.054 39.3924C66.1086 42.9609 68.429 47.0948 69.8827 51.5583C71.3364 56.0217 71.895 60.7271 71.5265 65.406C71.158 70.0848 69.8695 74.6454 67.7349 78.8273Z" fill="#D4DEFF"/>
<path d="M21.1864 86.2169L24.2858 80.1503C20.8266 78.3171 17.765 75.4003 16.4268 72.83L19.9239 69.5416C21.6525 72.5243 24.2027 74.9491 27.2716 76.528C31.5451 78.7014 35.6924 77.706 37.4409 74.2853C39.1264 70.9779 37.8197 67.7462 34.2847 63.6766C29.3736 58.158 26.9939 53.4647 29.6577 48.2423C32.1827 43.2529 37.6871 41.2748 43.6839 43.2025L46.7771 37.1359L50.514 39.0258L47.5408 44.8531C50.2731 46.2716 52.5962 48.3644 54.2889 50.9323L50.7855 54.1577C49.1873 51.632 46.9252 49.5925 44.2458 48.2612C39.6124 45.9051 36.4562 47.7761 35.2316 50.1826C33.6345 53.3325 35.0675 55.9972 39.1958 60.8228C44.1069 66.4925 45.6408 71.211 42.9138 76.5721C40.4899 81.322 34.9159 84.0813 28.1932 81.952L25.0054 88.195L21.1864 86.2169Z" fill="#E3EAFF"/>
<path d="M98.8667 125.883L78.4503 114.926C77.8747 115.994 77.299 117.063 76.7234 118.131C75.8885 119.68 79.8097 123.401 85.4793 126.445C91.149 129.49 96.419 130.697 97.2539 129.148C97.3324 129.006 98.8667 125.883 98.8667 125.883Z" fill="#C2D0FF"/>
<path d="M98.8881 126.114C98.0532 127.663 92.7832 126.452 87.1135 123.411C81.4439 120.37 77.5226 116.646 78.3575 115.097C79.1925 113.548 84.466 114.741 90.1321 117.803C95.7982 120.865 99.723 124.565 98.8881 126.114Z" fill="#D4DEFF"/>
</svg>
