<svg width="10" height="12" viewBox="0 0 10 12" fill="none" xmlns="http://www.w3.org/2000/svg">
<path d="M8.68509 6.72649H5.03922C5.40611 6.44396 5.78625 6.18386 6.1136 5.93302C6.19479 5.87101 6.2738 5.80723 6.35178 5.74295H8.68506C9.01647 5.74295 9.28498 5.47441 9.28498 5.14307C9.28498 4.81172 9.01649 4.54318 8.68506 4.54318H7.46085C7.62776 4.28758 7.77017 4.01341 7.87495 3.71086C8.14476 2.93079 8.01019 2.03255 7.55895 1.34989C6.42094 -0.371919 4.08287 -0.24463 2.45477 0.610682C1.7697 0.97063 2.3761 2.00621 3.06034 1.64675C3.86848 1.22221 4.7657 1.03055 5.64947 1.32112C6.25406 1.51988 6.75619 2.06871 6.80858 2.71391C6.86768 3.44527 6.42476 4.05864 5.91376 4.54352H1.315C0.983683 4.54352 0.715088 4.81209 0.715088 5.14341C0.715088 5.47475 0.983654 5.74329 1.315 5.74329H4.37237C4.09318 5.9495 3.81892 6.16183 3.56216 6.39743C3.44977 6.50085 3.34432 6.61118 3.24515 6.72683H1.315C0.983683 6.72683 0.715088 6.99531 0.715088 7.32674C0.715088 7.65798 0.983654 7.92665 1.315 7.92665H2.54533C2.15548 9.00942 2.27826 10.2387 3.15558 11.1437C4.36908 12.3957 6.4507 12.0887 7.85957 11.4023C8.55517 11.0633 7.94659 10.0289 7.25396 10.3662C6.1633 10.8978 4.16432 11.1828 3.6465 9.72277C3.39758 9.0208 3.52824 8.43482 3.8501 7.9268H8.68503C9.01644 7.9268 9.28495 7.65814 9.28495 7.32688C9.28498 6.99548 9.01649 6.72649 8.68509 6.72649Z" fill="#35363B" fill-opacity="0.4"/>
</svg>
