<svg aria-hidden="true" style="position: absolute; width: 0; height: 0; overflow: hidden;" version="1.1" xmlns="http://www.w3.org/2000/svg" xmlns:xlink="http://www.w3.org/1999/xlink">
<defs>
<symbol id="icon-arrow" viewBox="0 0 64 32">
<path d="M0 32l32-32 32 32h-64z"></path>
</symbol>
<symbol id="dollarRate" viewBox="0 0 32 32">
<path d="M23.175 20.786c-0.018-0.203-0.056-0.403-0.102-0.602-0.034-0.202-0.112-0.392-0.166-0.589-0.078-0.188-0.145-0.382-0.238-0.564s-0.183-0.366-0.298-0.536c-0.106-0.179-0.226-0.341-0.348-0.5-0.249-0.327-0.538-0.616-0.84-0.89-0.307-0.267-0.626-0.519-0.959-0.751-0.331-0.234-0.672-0.454-1.019-0.661-0.346-0.21-0.699-0.408-1.057-0.597-0.329-0.182-0.67-0.343-1.006-0.514l0.058-8.7 0.409 0.029c0.201 0.016 0.399 0.050 0.598 0.075 0.201 0.021 0.394 0.075 0.591 0.111 0.199 0.033 0.388 0.101 0.58 0.151 0.195 0.047 0.376 0.13 0.565 0.195 0.19 0.062 0.362 0.163 0.543 0.242 0.181 0.083 0.344 0.196 0.517 0.291 0.087 0.048 0.162 0.113 0.244 0.168l0.24 0.173 0.006 0.005c0.037 0.026 0.081 0.041 0.129 0.042 0.122 0.001 0.223-0.098 0.223-0.221l0.019-2.892v-0.013c0-0.075-0.038-0.148-0.107-0.188l-0.277-0.161c-0.091-0.058-0.188-0.096-0.284-0.138-0.191-0.091-0.386-0.157-0.583-0.218-0.195-0.072-0.395-0.108-0.593-0.16-0.198-0.054-0.398-0.078-0.598-0.118-0.199-0.041-0.4-0.058-0.6-0.087s-0.4-0.047-0.6-0.064c-0.312-0.032-0.623-0.048-0.935-0.064l0.018-2.735c0.001-0.161-0.128-0.292-0.289-0.293h-0.004l-1.769-0.012c-0.167-0.001-0.303 0.133-0.305 0.3v0.004l-0.018 2.788-0.34 0.058c-0.205 0.045-0.407 0.101-0.612 0.151-0.201 0.058-0.399 0.134-0.599 0.2-0.197 0.075-0.388 0.167-0.582 0.251-0.19 0.092-0.372 0.201-0.558 0.302-0.181 0.11-0.353 0.234-0.529 0.351-0.171 0.128-0.337 0.271-0.505 0.407-0.154 0.139-0.292 0.28-0.439 0.419-0.163 0.173-0.285 0.323-0.43 0.486-0.131 0.167-0.251 0.343-0.377 0.515-0.113 0.181-0.218 0.367-0.327 0.551-0.091 0.194-0.183 0.388-0.268 0.584-0.068 0.203-0.146 0.404-0.205 0.609-0.047 0.209-0.107 0.413-0.143 0.628-0.027 0.214-0.070 0.442-0.081 0.644l-0.015 0.302-0.008 0.151c-0.001 0.033-0.004 0.032-0.003 0.093l0.002 0.079c0.008 0.423 0.031 0.85 0.117 1.27 0.072 0.422 0.199 0.837 0.357 1.238 0.157 0.385 0.392 0.82 0.611 1.13 0.126 0.196 0.274 0.35 0.411 0.526 0.152 0.153 0.303 0.307 0.459 0.454l0.485 0.409 0.503 0.372c0.343 0.233 0.686 0.467 1.042 0.672 0.351 0.216 0.71 0.412 1.070 0.607 0.274 0.151 0.553 0.289 0.831 0.43l-0.053 7.888c-0.077-0.004-0.154-0.008-0.231-0.014-0.246-0.039-0.494-0.071-0.738-0.112l-0.716-0.166-0.756-0.236c-0.093-0.025-0.228-0.087-0.34-0.128l-0.352-0.138c-0.237-0.088-0.449-0.213-0.676-0.317-0.228-0.104-0.419-0.25-0.632-0.372-0.109-0.058-0.193-0.142-0.289-0.212l-0.282-0.219-0.023-0.018c-0.094-0.072-0.211-0.116-0.338-0.117-0.307-0.002-0.558 0.245-0.559 0.551l-0.020 2.96-0 0.018c-0.001 0.184 0.093 0.363 0.263 0.465l0.356 0.211c0.12 0.067 0.234 0.147 0.359 0.203 0.249 0.114 0.49 0.251 0.747 0.343s0.507 0.207 0.77 0.275c0.261 0.074 0.519 0.164 0.784 0.213 0.264 0.054 0.527 0.124 0.792 0.156 0.266 0.034 0.531 0.091 0.797 0.107 0.266 0.021 0.532 0.053 0.797 0.064l0.177 0.006-0.020 2.96c-0.002 0.351 0.28 0.637 0.63 0.639h0.008l1.769 0.011c0.357 0.002 0.648-0.285 0.651-0.642v-0.009l0.024-3.691 0.001-0.129c0.082-0.018 0.161-0.040 0.242-0.060 0.088-0.017 0.176-0.036 0.263-0.059 0.197-0.043 0.386-0.114 0.578-0.174 0.193-0.057 0.38-0.134 0.565-0.212 0.189-0.071 0.371-0.159 0.549-0.254l0.269-0.138 0.258-0.16c0.086-0.054 0.173-0.105 0.256-0.161l0.243-0.183c0.167-0.117 0.317-0.251 0.464-0.388 0.154-0.13 0.29-0.284 0.425-0.433 0.144-0.144 0.257-0.312 0.38-0.474 0.239-0.327 0.43-0.688 0.594-1.059 0.074-0.189 0.138-0.382 0.203-0.574 0.045-0.198 0.101-0.394 0.136-0.594 0.025-0.201 0.066-0.404 0.077-0.605 0.006-0.203 0.029-0.398 0.021-0.607-0.008-0.203-0.008-0.407-0.040-0.609zM18.128 18.355l0.267 0.205 0.246 0.23c0.163 0.154 0.332 0.301 0.467 0.478 0.141 0.172 0.295 0.333 0.4 0.527l0.175 0.279c0.059 0.092 0.090 0.199 0.136 0.296 0.041 0.1 0.088 0.199 0.125 0.299l0.071 0.306c0.065 0.19 0.057 0.43 0.073 0.653l0.004 0.085 0.002 0.042c-0.002-0.022-0.002 0.017-0.003 0.023l-0.013 0.161c-0.004 0.108-0.022 0.214-0.040 0.319-0.033 0.211-0.089 0.415-0.161 0.611-0.071 0.197-0.17 0.379-0.278 0.553-0.119 0.167-0.247 0.327-0.398 0.465s-0.311 0.266-0.49 0.372c-0.087 0.056-0.177 0.107-0.272 0.152-0.091 0.049-0.186 0.093-0.285 0.13-0.192 0.083-0.395 0.148-0.6 0.205-0.042 0.012-0.086 0.021-0.128 0.032l0.247-6.761c0.157 0.105 0.305 0.222 0.455 0.336zM14.126 12.951c-0.18-0.134-0.359-0.27-0.514-0.427-0.16-0.153-0.328-0.292-0.461-0.479l-0.212-0.264c-0.055-0.076-0.105-0.187-0.158-0.277-0.048-0.097-0.112-0.186-0.148-0.289l-0.102-0.309c-0.085-0.201-0.095-0.419-0.135-0.627-0.050-0.201-0.027-0.443-0.040-0.664l-0.005-0.169c-0.002-0.032 0.007-0.101 0.009-0.15 0.008-0.107 0.014-0.215 0.034-0.32 0.030-0.211 0.077-0.419 0.148-0.616 0.031-0.101 0.071-0.198 0.116-0.292 0.040-0.097 0.091-0.187 0.144-0.277 0.104-0.181 0.214-0.327 0.369-0.509 0.133-0.139 0.303-0.277 0.448-0.417 0.171-0.115 0.348-0.22 0.521-0.328 0.193-0.075 0.382-0.158 0.574-0.23l0.123-0.029-0.252 7c-0.157-0.102-0.309-0.213-0.457-0.327z"></path>
</symbol>
<symbol id="euroRate" viewBox="0 0 32 32">
<path d="M27.682 25.336c-1.89 1.988-4.31 3.083-6.815 3.083-4.105 0-7.658-2.882-9.331-7.049h11.401c0.989 0 1.79-0.802 1.79-1.79s-0.802-1.79-1.79-1.79h-12.311c-0.070-0.585-0.109-1.182-0.109-1.79 0-0.686 0.048-1.358 0.138-2.014h12.281c0.989 0 1.79-0.802 1.79-1.79s-0.802-1.79-1.79-1.79h-11.306c1.708-4.045 5.206-6.825 9.236-6.825 2.504 0 4.924 1.095 6.815 3.083 0.681 0.716 1.813 0.746 2.531 0.064s0.745-1.814 0.065-2.531c-2.573-2.706-5.914-4.197-9.41-4.197-5.968 0-11.070 4.335-13.049 10.406h-4.797c-0.989 0-1.79 0.802-1.79 1.79s0.802 1.79 1.79 1.79h4.030c-0.073 0.661-0.114 1.332-0.114 2.014 0 0.606 0.032 1.202 0.090 1.79h-4.006c-0.989 0-1.79 0.802-1.79 1.79s0.802 1.79 1.79 1.79h4.726c1.926 6.188 7.079 10.629 13.12 10.629 3.496 0 6.836-1.491 9.409-4.197 0.681-0.717 0.653-1.85-0.064-2.531s-1.85-0.653-2.53 0.063z"></path>
</symbol>
<symbol id="hryvnaRate" viewBox="0 0 32 32">
<path d="M25.827 17.937h-9.722c0.978-0.753 1.992-1.447 2.865-2.116 0.216-0.165 0.427-0.335 0.635-0.507h6.222c0.884 0 1.6-0.716 1.6-1.6s-0.716-1.6-1.6-1.6h-3.265c0.445-0.682 0.825-1.413 1.104-2.22 0.72-2.080 0.361-4.476-0.843-6.296-3.035-4.591-9.27-4.252-13.611-1.971-1.827 0.96-0.21 3.721 1.615 2.763 2.155-1.132 4.548-1.643 6.904-0.868 1.612 0.53 2.951 1.994 3.091 3.714 0.158 1.95-1.024 3.586-2.386 4.879h-12.263c-0.884 0-1.6 0.716-1.6 1.6s0.716 1.6 1.6 1.6h8.153c-0.745 0.55-1.476 1.116-2.161 1.744-0.3 0.276-0.581 0.57-0.845 0.878h-5.147c-0.884 0-1.6 0.716-1.6 1.6s0.716 1.6 1.6 1.6h3.281c-1.040 2.887-0.712 6.165 1.627 8.579 3.236 3.339 8.787 2.52 12.544 0.69 1.855-0.904 0.232-3.662-1.615-2.763-2.908 1.418-8.239 2.178-9.62-1.716-0.664-1.872-0.315-3.435 0.543-4.789h12.893c0.884 0 1.6-0.716 1.6-1.6s-0.716-1.601-1.6-1.601z"></path>
</symbol>
</defs>
</svg>
