<svg width="46" height="46" viewBox="0 0 46 46" fill="none" xmlns="http://www.w3.org/2000/svg">
<g clip-path="url(#clip0)">
<path d="M35.7391 3.84424C30.9046 0.634451 25.1006 -0.624983 19.3771 0.291817C19.2774 0.293702 19.1778 0.303304 19.0782 0.320535C13.027 1.36935 7.74605 4.70935 4.2069 9.72402C0.67162 14.7407 -0.698471 20.831 0.349716 26.8774C0.524099 27.8746 0.767391 28.8795 1.07402 29.8556C2.34061 33.9649 2.02823 38.3691 0.196445 42.2564C-0.123572 42.9301 -0.0181871 43.7303 0.462827 44.3025C0.943751 44.8748 1.70642 45.1122 2.4345 44.9169L11.0246 42.5742C14.6615 44.7983 18.7677 45.9486 22.9602 45.9486C24.4836 45.9486 26.0184 45.7974 27.5456 45.4892C33.5681 44.2776 38.757 40.798 42.1562 35.6895C49.1752 25.1433 46.2971 10.8591 35.7391 3.84424ZM38.9659 33.5707C36.1319 37.8294 31.8072 40.7291 26.7907 41.7378C21.778 42.7465 16.6657 41.7436 12.4004 38.9109C12.0824 38.7003 11.7125 38.5912 11.3388 38.5912C11.1702 38.5912 10.9997 38.6142 10.8329 38.6601L4.98484 40.2545C5.97167 36.4915 5.89881 32.5065 4.73382 28.7187C4.47517 27.8938 4.27015 27.0536 4.1264 26.2228C3.2526 21.1852 4.39467 16.1092 7.34167 11.929C10.2389 7.81961 14.5406 5.06149 19.4786 4.14084C19.5706 4.13698 19.6606 4.12746 19.7526 4.11212C24.5986 3.27573 29.523 4.31502 33.6198 7.03482C42.4188 12.8783 44.8158 24.7816 38.9659 33.5707Z" fill="#18191F" fill-opacity="0.1"/>
<path d="M23.0074 11.2994C21.9479 11.2994 21.0913 12.155 21.0913 13.2134V24.6974C21.0913 25.7559 21.9479 26.6115 23.0074 26.6115C24.067 26.6115 24.9236 25.754 24.9236 24.6974V13.2134C24.9236 12.155 24.0671 11.2994 23.0074 11.2994Z" fill="#FF2E00"/>
<path d="M24.7688 31.8155C24.6731 31.5666 24.5389 31.3561 24.3664 31.1839C24.2707 31.1073 24.1748 31.0116 24.0599 30.9542C23.9641 30.8777 23.8491 30.8221 23.7341 30.7819C23.6191 30.7226 23.5042 30.6862 23.3701 30.667C22.7588 30.5331 22.0863 30.7455 21.6475 31.1839C21.475 31.3561 21.3409 31.5667 21.2451 31.8155C21.1493 32.0451 21.0918 32.294 21.0918 32.5428C21.0918 32.7917 21.1493 33.0405 21.2451 33.2702C21.3408 33.4998 21.475 33.7104 21.6475 33.9018C21.8391 34.074 22.0499 34.208 22.2798 34.3038C22.5097 34.3994 22.7588 34.4569 23.0079 34.4569C23.2571 34.4569 23.5042 34.3994 23.7341 34.3038C23.964 34.2081 24.1729 34.0741 24.3664 33.9018C24.5389 33.7104 24.673 33.4998 24.7688 33.2702C24.8646 33.0405 24.9221 32.7917 24.9221 32.5428C24.9221 32.294 24.8646 32.0451 24.7688 31.8155Z" fill="#FF2E00"/>
</g>
<defs>
<clipPath id="clip0">
<rect width="46" height="45.9486" fill="white"/>
</clipPath>
</defs>
</svg>
