<svg height="512" viewBox="0 0 60 60" width="512" xmlns="http://www.w3.org/2000/svg"><g id="Page-1" fill="none" fill-rule="evenodd"><g id="044---Playing-Cards" fill-rule="nonzero"><rect id="Rectangle-path" fill="#e8edfc" height="4" rx="2" width="38" x="11" y="35"/><path id="Shape" d="m47 35h-3c1.1045695 0 2 .8954305 2 2s-.8954305 2-2 2h3c1.1045695 0 2-.8954305 2-2s-.8954305-2-2-2z" fill="#cad9fc"/><path id="Rectangle-path" d="m27 39h6v15h-6z" fill="#a4c2f7"/><path id="Rectangle-path" d="m30 39h3v15h-3z" fill="#7facfa"/><path id="Shape" d="m37.979 59h-15.959c-.3116957.0026133-.607101-.1389817-.8002927-.3835998-.1931916-.2446181-.2624784-.5647943-.1877073-.8674002.228388-.8671257.6844707-1.6574159 1.321-2.289.9597333-.9373526 2.2484651-1.4614608 3.59-1.46h8.114c2.2977163-.0101119 4.3139087 1.5289287 4.91 3.748.0751349.3027475.0060196.6232248-.1872162.8680945-.1932359.2448698-.4888639.3865974-.8007838.3839055z" fill="#e8edfc"/><path id="Shape" d="m38.967 57.748c-.5963981-2.2188656-2.6124013-3.7577617-4.91-3.748l-3-.0000462c2.2975987-.0097155 4.3136019 1.5291806 4.91 3.7480462.0751349.3027475.0060196.6232248-.1872162.8680945-.1932359.2448698-.4888639.3865974-.8007838.3839055h3c.3119199.0026919.6075479-.1390357.8007838-.3839055.1932358-.2448697.2623511-.565347.1872162-.8680945z" fill="#cad9fc"/><path id="Shape" d="m13 45v2h-12v-4h10c1.1032019.0032948 1.9967052.8967981 2 2z" fill="#e8edfc"/><path id="Shape" d="m59 43v4h-12v-2c.0032948-1.1032019.8967981-1.9967052 2-2z" fill="#e8edfc"/><path id="Rectangle-path" d="m56 43h3v4h-3z" fill="#cad9fc"/><rect id="Rectangle-path" fill="#e8edfc" height="26" rx="2" width="20" x="18" y="1"/><path id="Shape" d="m36 1h-3c1.1032019.0032948 1.9967052.89679813 2 2v22c-.0032948 1.1032019-.8967981 1.9967052-2 2h3c1.1032019-.0032948 1.9967052-.8967981 2-2v-22c-.0032948-1.10320187-.8967981-1.9967052-2-2z" fill="#cad9fc"/><path id="Shape" d="m42 7v22c-.0032948 1.1032019-.8967981 1.9967052-2 2h-16c-1.1032019-.0032948-1.9967052-.8967981-2-2v-2h14c1.1032019-.0032948 1.9967052-.8967981 2-2v-20h2c1.1032019.0032948 1.9967052.89679813 2 2z" fill="#a4c2f7"/><path id="Shape" d="m40 5h-2v.279c.615396.35528455.9960674 1.01042002 1 1.721v22c-.0032948 1.1032019-.8967981 1.9967052-2 2h3c1.1032019-.0032948 1.9967052-.8967981 2-2v-22c-.0032948-1.10320187-.8967981-1.9967052-2-2z" fill="#7facfa"/><path id="Shape" d="m34 12.67c.0029296.9637224-.3672634 1.8911757-1.033 2.588l-4.267 4.442c-.1846958.1949673-.4414394.305405-.71.305405s-.5253042-.1104377-.71-.305405l-4.133-4.3c-1.1219858-1.1372271-1.4480371-2.8385355-.826-4.31.4606282-1.0615137 1.4215434-1.82238416 2.5603904-2.02736457 1.1388471-.20498041 2.3047585.17308379 3.1066096 1.00736457.6475768-.6836742 1.5478174-1.07094344 2.4895-1.07094344s1.8419232.38726924 2.4895 1.07094344c.6679956.70022 1.0383069 1.6322717 1.033 2.6z" fill="#e8edfc"/><path id="Rectangle-path" d="m1 43h3v4h-3z" fill="#fff"/><path id="Shape" d="m18 3v22c.0032948 1.1032019.8967981 1.9967052 2 2h2v2c.0032948 1.1032019.8967981 1.9967052 2 2h3c-1.1032019-.0032948-1.9967052-.8967981-2-2v-2h-2c-1.1032019-.0032948-1.9967052-.8967981-2-2v-22c.0032948-1.10320187.8967981-1.9967052 2-2h-3c-1.1032019.0032948-1.9967052.89679813-2 2z" fill="#fff"/><path id="Shape" d="m14 37c0-1.1045695.8954305-2 2-2h-3c-1.1045695 0-2 .8954305-2 2s.8954305 2 2 2h3c-1.1045695 0-2-.8954305-2-2z" fill="#fff"/><path id="Rectangle-path" d="m17 17h2v8h-2z" fill="#fff"/><g fill="#428dff"><path id="Shape" d="m13 40h13v13h-.057c-1.607973-.0042707-3.1528774.625188-4.3 1.752-.7617917.7589392-1.3069303 1.7076667-1.579 2.748-.1565195.5960656-.0259769 1.2310277.353 1.717.3818341.4968633.9733675.7874541 1.6.786h15.962c.6265259.000993 1.2178662-.2895029 1.6-.786.37854-.4869581.5086691-1.122447.352-1.719-.7090897-2.6594684-3.1216371-4.5068702-5.874-4.498h-.057v-13h13c1.6568542 0 3-1.3431458 3-3s-1.3431458-3-3-3h-34c-1.6568542 0-3 1.3431458-3 3s1.3431458 3 3 3zm25 17.988c0 .006-.008.012-.022.012h-15.978c.1815243-.6910881.5443652-1.3211399 1.051-1.825.7726235-.7557455 1.8112175-1.1777192 2.892-1.175h8.114c1.8392368-.0115618 3.4567293 1.2141718 3.943 2.988zm-6-4.988h-4v-13h4zm-19-17h34c.5522847 0 1 .4477153 1 1s-.4477153 1-1 1h-34c-.5522847 0-1-.4477153-1-1s.4477153-1 1-1z"/><path id="Shape" d="m1 60c.55228475 0 1-.4477153 1-1v-11h13v11c0 .5522847.4477153 1 1 1s1-.4477153 1-1v-11c0-1.1045695-.8954305-2-2-2h-1v-1c0-1.6568542-1.3431458-3-3-3h-9v-14c0-.5522847-.44771525-1-1-1s-1 .4477153-1 1v31c0 .5522847.44771525 1 1 1zm10-16c.5522847 0 1 .4477153 1 1v1h-10v-2z"/><path id="Shape" d="m59 27c-.5522847 0-1 .4477153-1 1v14h-9c-1.6568542 0-3 1.3431458-3 3v1h-1c-1.1045695 0-2 .8954305-2 2v11c0 .5522847.4477153 1 1 1s1-.4477153 1-1v-11h13v11c0 .5522847.4477153 1 1 1s1-.4477153 1-1v-31c0-.5522847-.4477153-1-1-1zm-11 19v-1c0-.5522847.4477153-1 1-1h9v2z"/><path id="Shape" d="m18.02 22c-.3572656.0017863-.6883456-.187162-.8685254-.4956699s-.1820858-.6897057-.005-1c.1770858-.3102942.5062598-.5025438.8635254-.5043301h.01c.5522847 0 1 .4477153 1 1s-.4477153 1-1 1z"/><path id="Shape" d="m24 32h16c1.6568542 0 3-1.3431458 3-3v-22c0-1.65685425-1.3431458-3-3-3h-1v-1c0-1.65685425-1.3431458-3-3-3h-16c-1.6568542 0-3 1.34314575-3 3v14c0 .5522847.4477153 1 1 1s1-.4477153 1-1v-14c0-.55228475.4477153-1 1-1h16c.5522847 0 1 .44771525 1 1v22c0 .5522847-.4477153 1-1 1h-16c-.5522847 0-1-.4477153-1-1s-.4477153-1-1-1-1 .4477153-1 1c0 1.6568542 1.3431458 3 3 3h1v1c0 1.6568542 1.3431458 3 3 3zm15-7v-19h1c.5522847 0 1 .44771525 1 1v22c0 .5522847-.4477153 1-1 1h-16c-.5522847 0-1-.4477153-1-1v-1h13c1.6568542 0 3-1.3431458 3-3z"/><path id="Shape" d="m27.988 21c.5403615.0004302 1.0572519-.2207844 1.43-.612l4.269-4.437c1.7499737-1.8415696 1.7499737-4.7314304 0-6.573-1.4953407-1.5743108-3.9118797-1.83142547-5.705-.607-.7320713-.49741739-1.5969285-.76293759-2.482-.762-1.7709209-.00014497-3.3746353 1.04611391-4.088 2.667-.7938208 1.8444891-.3926464 3.9859305 1.015 5.418l4.132 4.294c.3724402.3910623.8889617.6122738 1.429.612zm-4.758-9.494c.3237122-.7617835 1.008954-1.3095987 1.8233161-1.4576462.8143621-.14804752 1.6485676.1235386 2.2196839.7226462.1882866.192091.446019.3002305.715.3.2702066-.0010761.5284772-.1114544.716-.306.4669943-.4736233 1.1043663-.7402666 1.7695-.7402666s1.3025057.2666433 1.7695.7402666c1.0052831 1.0672073 1.0052831 2.7327927 0 3.8l-4.243 4.435-4.132-4.294c-.8413859-.8388742-1.0933395-2.1025912-.638-3.2z"/></g></g></g></svg>