<svg height="511pt" viewBox="1 -8 511.99927 511" width="511pt" xmlns="http://www.w3.org/2000/svg"><path d="m46.082031 174.230469-20.660156 20.640625 36.207031 36.207031 20.640625-20.660156c6.359375 3.554687 13.117188 6.34375 20.128907 8.320312v29.226563h51.203124v-29.226563c7.011719-1.96875 13.765626-4.753906 20.128907-8.300781l20.640625 20.640625 36.207031-36.207031-20.65625-20.640625c3.550781-6.363281 6.34375-13.117188 8.320313-20.132813h29.226562v-51.199218h-29.226562c-1.972657-7.011719-4.757813-13.765626-8.304688-20.128907l20.640625-20.644531-36.207031-36.207031-20.640625 20.660156c-6.363281-3.550781-13.117188-6.34375-20.132813-8.320313v-29.226562h-51.199218v29.226562c-7.011719 1.972657-13.765626 4.757813-20.128907 8.304688l-20.640625-20.640625-36.207031 36.207031 20.660156 20.640625c-3.554687 6.359375-6.34375 13.117188-8.320312 20.128907h-29.226563v51.203124h29.226563c1.972656 7.011719 4.765625 13.765626 8.320312 20.128907zm81.917969-88.398438c23.5625 0 42.667969 19.105469 42.667969 42.667969s-19.105469 42.667969-42.667969 42.667969-42.667969-19.105469-42.667969-42.667969 19.105469-42.667969 42.667969-42.667969zm0 0" fill="#78b9eb"/><path d="m466.03125 138.867188 19.515625-19.507813-24.140625-24.140625-19.507812 19.515625c-7.308594-4.609375-15.34375-7.945313-23.765626-9.863281v-27.574219h-34.132812v27.574219c-8.425781 1.917968-16.460938 5.253906-23.765625 9.863281l-19.507813-19.515625-24.140624 24.140625 19.507812 19.507813c-4.609375 7.308593-7.941406 15.34375-9.859375 23.765624h-27.570313v34.132813h27.570313c1.921875 8.425781 5.257813 16.460937 9.867187 23.765625l-19.515624 19.507812 24.140624 24.140626 19.507813-19.507813c7.308594 4.609375 15.34375 7.941406 23.765625 9.855469v27.574218h34.132812v-27.574218c8.421876-1.917969 16.460938-5.253906 23.765626-9.863282l19.507812 19.515626 24.140625-24.140626-19.507813-19.507812c4.605469-7.308594 7.941407-15.34375 9.855469-23.765625h27.570313v-34.132813h-27.570313c-1.917969-8.421874-5.253906-16.457031-9.863281-23.765624zm-64.964844 74.964843c-18.851562 0-34.132812-15.28125-34.132812-34.132812 0-18.851563 15.28125-34.132813 34.132812-34.132813 18.851563 0 34.132813 15.28125 34.132813 34.132813 0 18.851562-15.28125 34.132812-34.132813 34.132812zm0 0" fill="#78b9eb"/><path d="m256 282.101562v27.570313c-8.421875 1.917969-16.460938 5.253906-23.765625 9.863281l-19.507813-19.515625-24.140624 24.140625 19.507812 19.507813c-4.605469 7.308593-7.941406 15.34375-9.855469 23.765625h-27.574219v34.132812h27.574219c1.917969 8.425782 5.253907 16.460938 9.863281 23.765625l-19.515624 19.507813 24.140624 24.140625 19.507813-19.507813c7.308594 4.609375 15.34375 7.941406 23.765625 9.859375v27.570313h34.132812v-27.570313c8.425782-1.921875 16.460938-5.257812 23.765626-9.867187l19.507812 19.515625 24.140625-24.140625-19.507813-19.507813c4.609376-7.308593 7.941407-15.34375 9.855469-23.765625h27.574219v-34.132812h-27.574219c-1.917969-8.421875-5.253906-16.460938-9.863281-23.765625l19.515625-19.507813-24.140625-24.140625-19.507812 19.515625c-7.304688-4.609375-15.34375-7.945312-23.765626-9.863281v-27.574219h-34.132812zm51.199219 102.398438c0 18.851562-15.28125 34.132812-34.132813 34.132812-18.851562 0-34.132812-15.28125-34.132812-34.132812s15.28125-34.132812 34.132812-34.132812c18.851563 0 34.132813 15.28125 34.132813 34.132812zm0 0" fill="#78b9eb"/><g fill="#1e81ce"><path d="m162.132812 224.984375c3.394532-1.195313 6.726563-2.566406 9.976563-4.113281l16.214844 16.214844c3.332031 3.332031 8.730469 3.332031 12.0625 0l36.207031-36.207032c3.332031-3.332031 3.332031-8.734375 0-12.066406l-16.210938-16.210938c1.539063-3.25 2.910157-6.578124 4.105469-9.96875h22.980469c4.710938 0 8.53125-3.820312 8.53125-8.53125v-51.203124c0-4.710938-3.820312-8.53125-8.53125-8.53125h-22.980469c-1.199219-3.394532-2.570312-6.726563-4.113281-9.976563l16.210938-16.214844c3.332031-3.332031 3.332031-8.730469 0-12.0625l-36.179688-36.226562c-3.332031-3.332031-8.734375-3.332031-12.066406 0l-16.214844 16.214843c-3.257812-1.535156-6.59375-2.902343-9.992188-4.089843v-22.980469c0-4.710938-3.820312-8.53125-8.53125-8.53125h-51.203124c-4.710938 0-8.53125 3.820312-8.53125 8.53125v22.980469c-3.394532 1.199219-6.726563 2.570312-9.976563 4.113281l-16.210937-16.210938c-3.332032-3.332031-8.734376-3.332031-12.066407 0l-36.226562 36.179688c-3.332031 3.332031-3.332031 8.734375 0 12.066406l16.214843 16.214844c-1.535156 3.253906-2.902343 6.589844-4.085937 9.992188h-22.980469c-4.714844 0-8.535156 3.820312-8.535156 8.53125v51.203124c0 4.710938 3.820312 8.53125 8.535156 8.53125h22.980469c1.195313 3.394532 2.566406 6.726563 4.113281 9.976563l-16.214844 16.210937c-3.332031 3.332032-3.332031 8.734376 0 12.066407l36.207032 36.207031c3.332031 3.332031 8.734375 3.332031 12.066406 0l16.210938-16.210938c3.25 1.539063 6.578124 2.910157 9.96875 4.101563v22.980469c0 4.714844 3.820312 8.535156 8.53125 8.535156h51.203124c4.710938 0 8.53125-3.820312 8.53125-8.535156zm-10.855468-14.453125c-3.671875 1.039062-6.210938 4.390625-6.210938 8.207031v20.695313h-34.132812v-20.695313c0-3.816406-2.539063-7.167969-6.210938-8.207031-6.371094-1.792969-12.507812-4.328125-18.289062-7.542969-3.34375-1.886719-7.53125-1.304687-10.238282 1.414063l-14.566406 14.601562-24.132812-24.132812 14.601562-14.609375c2.71875-2.707031 3.300782-6.894531 1.414063-10.238281-3.21875-5.78125-5.75-11.921876-7.542969-18.289063-1.054688-3.65625-4.402344-6.171875-8.207031-6.167969h-20.695313v-34.132812h20.695313c3.816406-.003906 7.167969-2.539063 8.207031-6.210938 1.792969-6.371094 4.324219-12.507812 7.542969-18.289062 1.886719-3.34375 1.304687-7.53125-1.414063-10.238282l-14.601562-14.566406 24.132812-24.132812 14.609375 14.601562c2.707031 2.71875 6.894531 3.300782 10.238281 1.414063 5.78125-3.21875 11.917969-5.75 18.289063-7.542969 3.65625-1.054688 6.171875-4.402344 6.167969-8.210938v-20.691406h34.132812v20.691406c.003906 3.820313 2.539063 7.171876 6.214844 8.210938 6.367188 1.792969 12.503906 4.324219 18.285156 7.542969 3.34375 1.886719 7.535156 1.304687 10.242188-1.414063l14.609375-14.601562 24.128906 24.132812-14.597656 14.609375c-2.722657 2.703125-3.300781 6.894531-1.417969 10.238281 3.21875 5.78125 5.75 11.917969 7.542969 18.289063 1.039062 3.671875 4.390625 6.210937 8.210937 6.210937h20.648438v34.132813h-20.691406c-3.820313 0-7.171876 2.539063-8.210938 6.210937-1.792969 6.371094-4.324219 12.507813-7.542969 18.289063-1.882812 3.34375-1.304687 7.53125 1.417969 10.238281l14.597656 14.609375-24.128906 24.132813-14.609375-14.644532c-2.707031-2.71875-6.898437-3.300781-10.242187-1.414062-5.769532 3.199219-11.894532 5.714844-18.246094 7.5zm0 0"/><path d="m128 77.300781c-28.277344 0-51.199219 22.921875-51.199219 51.199219s22.921875 51.199219 51.199219 51.199219 51.199219-22.921875 51.199219-51.199219c-.027344-28.265625-22.933594-51.171875-51.199219-51.199219zm0 85.332031c-18.851562 0-34.132812-15.28125-34.132812-34.132812s15.28125-34.132812 34.132812-34.132812 34.132812 15.28125 34.132812 34.132812-15.28125 34.132812-34.132812 34.132812zm0 0"/><path d="m503.464844 154.101562h-21.042969c-1.496094-4.769531-3.417969-9.394531-5.742187-13.816406l14.890624-14.890625c3.332032-3.332031 3.332032-8.734375 0-12.066406l-24.132812-24.132813c-3.332031-3.332031-8.734375-3.332031-12.066406 0l-14.890625 14.890626c-4.425781-2.320313-9.046875-4.242188-13.8125-5.742188v-21.042969c0-4.714843-3.820313-8.535156-8.535157-8.535156h-34.132812c-4.714844 0-8.535156 3.820313-8.535156 8.535156v21.042969c-4.765625 1.5-9.386719 3.421875-13.8125 5.742188l-14.890625-14.890626c-3.332031-3.332031-8.734375-3.332031-12.066407 0l-24.132812 24.132813c-3.332031 3.332031-3.332031 8.734375 0 12.066406l14.890625 14.890625c-2.324219 4.421875-4.246094 9.046875-5.742187 13.816406h-21.042969c-4.714844 0-8.535157 3.820313-8.535157 8.53125v34.132813c0 4.714844 3.820313 8.535156 8.535157 8.535156h21.042969c1.496093 4.765625 3.417968 9.390625 5.742187 13.816407l-14.890625 14.890624c-3.332031 3.332032-3.332031 8.730469 0 12.0625l24.132812 24.132813c3.332032 3.332031 8.734376 3.332031 12.066407 0l14.890625-14.890625c4.421875 2.324219 9.046875 4.246094 13.8125 5.742188v21.046874c0 4.710938 3.820312 8.53125 8.535156 8.53125h34.132812c4.714844 0 8.535157-3.820312 8.535157-8.53125v-21.046874c4.765625-1.496094 9.390625-3.417969 13.8125-5.742188l14.890625 14.890625c3.332031 3.332031 8.734375 3.332031 12.066406 0l24.132812-24.132813c3.332032-3.332031 3.332032-8.730468 0-12.0625l-14.890624-14.890624c2.324218-4.425782 4.246093-9.050782 5.742187-13.816407h21.042969c4.714844 0 8.535156-3.820312 8.535156-8.535156v-34.132813c0-4.710937-3.820312-8.53125-8.535156-8.53125zm-8.53125 34.132813h-19.03125c-3.980469 0-7.433594 2.753906-8.320313 6.636719-1.707031 7.480468-4.671875 14.621094-8.761719 21.113281-2.125 3.367187-1.636718 7.761719 1.175782 10.578125l13.476562 13.476562-12.066406 12.066407-13.476562-13.476563c-2.816407-2.8125-7.210938-3.300781-10.578126-1.175781-6.492187 4.105469-13.628906 7.085937-21.113281 8.804687-3.867187.882813-6.617187 4.3125-6.636719 8.277344v19.03125h-17.066406v-19.03125c0-3.980468-2.757812-7.433594-6.640625-8.320312-7.480469-1.707032-14.621093-4.671875-21.109375-8.761719-3.371094-2.125-7.761718-1.636719-10.582031 1.175781l-13.476563 13.476563-12.0625-12.066407 13.472657-13.476562c2.8125-2.816406 3.300781-7.210938 1.175781-10.578125-4.089844-6.492187-7.054688-13.632813-8.761719-21.113281-.886719-3.882813-4.335937-6.636719-8.320312-6.636719h-19.03125v-17.066406h19.03125c3.980469 0 7.433593-2.757813 8.320312-6.640625 1.707031-7.480469 4.671875-14.621094 8.761719-21.109375 2.125-3.371094 1.636719-7.761719-1.175781-10.582031l-13.472657-13.476563 12.0625-12.0625 13.476563 13.472656c2.816406 2.8125 7.203125 3.304688 10.570313 1.1875 6.496093-4.09375 13.636718-7.058593 21.121093-8.773437 3.882813-.886719 6.640625-4.335938 6.640625-8.320313v-19.03125h17.066406v19.03125c0 3.980469 2.753907 7.433594 6.636719 8.320313 7.484375 1.714844 14.625 4.679687 21.121094 8.773437 3.367187 2.117188 7.753906 1.625 10.574219-1.1875l13.472656-13.472656 12.066406 12.0625-13.476562 13.476563c-2.8125 2.820312-3.300782 7.210937-1.175782 10.582031 4.109376 6.488281 7.085938 13.625 8.804688 21.109375.882812 3.867187 4.3125 6.621094 8.277344 6.640625h19.03125zm0 0"/><path d="m401.066406 137.03125c-23.5625 0-42.667968 19.105469-42.667968 42.667969s19.105468 42.667969 42.667968 42.667969 42.667969-19.105469 42.667969-42.667969c-.027344-23.550781-19.117187-42.636719-42.667969-42.667969zm0 68.269531c-14.136718 0-25.597656-11.460937-25.597656-25.601562 0-14.136719 11.460938-25.597657 25.597656-25.597657 14.140625 0 25.601563 11.460938 25.601563 25.597657 0 14.140625-11.460938 25.601562-25.601563 25.601562zm0 0"/><path d="m375.464844 358.898438h-21.042969c-1.496094-4.765626-3.417969-9.390626-5.742187-13.816407l14.890624-14.890625c3.332032-3.332031 3.332032-8.730468 0-12.0625l-24.132812-24.132812c-3.332031-3.332032-8.734375-3.332032-12.066406 0l-14.890625 14.890625c-4.425781-2.324219-9.046875-4.242188-13.8125-5.742188v-21.042969c0-4.714843-3.820313-8.535156-8.535157-8.535156h-34.132812c-4.714844 0-8.535156 3.820313-8.535156 8.535156v21.042969c-4.765625 1.5-9.386719 3.421875-13.8125 5.742188l-14.890625-14.890625c-3.332031-3.332032-8.734375-3.332032-12.066407 0l-24.132812 24.132812c-3.332031 3.332032-3.332031 8.730469 0 12.0625l14.890625 14.890625c-2.324219 4.425781-4.246094 9.050781-5.742187 13.816407h-21.042969c-4.714844 0-8.535157 3.820312-8.535157 8.535156v34.132812c0 4.710938 3.820313 8.53125 8.535157 8.53125h21.042969c1.496093 4.769532 3.417968 9.394532 5.742187 13.816406l-14.890625 14.890626c-3.332031 3.332031-3.332031 8.734374 0 12.066406l24.132812 24.132812c3.332032 3.332032 8.734376 3.332032 12.066407 0l14.890625-14.890625c4.421875 2.324219 9.046875 4.246094 13.8125 5.742188v21.042969c0 4.714843 3.820312 8.535156 8.535156 8.535156h34.132812c4.714844 0 8.535157-3.820313 8.535157-8.535156v-21.042969c4.765625-1.496094 9.390625-3.417969 13.8125-5.742188l14.890625 14.890625c3.332031 3.332032 8.734375 3.332032 12.066406 0l24.132812-24.132812c3.332032-3.332032 3.332032-8.734375 0-12.066406l-14.890624-14.890626c2.324218-4.421874 4.246093-9.046874 5.742187-13.816406h21.042969c4.714844 0 8.535156-3.820312 8.535156-8.53125v-34.132812c0-4.714844-3.820312-8.535156-8.535156-8.535156zm-8.53125 34.132812h-19.03125c-3.980469 0-7.433594 2.757812-8.320313 6.640625-1.707031 7.480469-4.671875 14.621094-8.761719 21.109375-2.125 3.371094-1.636718 7.761719 1.175782 10.582031l13.476562 13.476563-12.066406 12.066406-13.476562-13.476562c-2.816407-2.8125-7.210938-3.300782-10.578126-1.175782-6.492187 4.105469-13.628906 7.082032-21.113281 8.804688-3.867187.882812-6.617187 4.3125-6.636719 8.277344v19.03125h-17.066406v-19.03125c0-3.980469-2.757812-7.433594-6.640625-8.320313-7.480469-1.707031-14.621093-4.671875-21.109375-8.761719-3.371094-2.125-7.761718-1.636718-10.582031 1.175782l-13.476563 13.476562-12.0625-12.066406 13.472657-13.476563c2.8125-2.820312 3.304687-7.210937 1.175781-10.582031-4.089844-6.488281-7.054688-13.628906-8.761719-21.109375-.886719-3.882813-4.335937-6.640625-8.320312-6.640625h-19.03125v-17.066406h19.03125c3.980469 0 7.433593-2.753906 8.320312-6.636719 1.707031-7.480469 4.671875-14.621094 8.761719-21.113281 2.128906-3.367188 1.636719-7.757813-1.175781-10.578125l-13.472657-13.476563 12.0625-12.066406 13.476563 13.476562c2.816406 2.8125 7.203125 3.304688 10.574219 1.183594 6.492187-4.089844 13.632812-7.058594 21.117187-8.769531 3.882813-.886719 6.640625-4.339844 6.640625-8.320313v-19.03125h17.066406v19.03125c0 3.980469 2.753907 7.433594 6.636719 8.320313 7.484375 1.710937 14.625 4.679687 21.121094 8.769531 3.371094 2.121094 7.757813 1.628906 10.574219-1.183594l13.472656-13.476562 12.066406 12.066406-13.476562 13.476563c-2.8125 2.820312-3.300782 7.210937-1.175782 10.578125 4.109376 6.492187 7.085938 13.628906 8.808594 21.113281.878906 3.867187 4.308594 6.617187 8.277344 6.636719h19.027344zm0 0"/><path d="m273.066406 341.832031c-23.5625 0-42.667968 19.105469-42.667968 42.667969s19.105468 42.667969 42.667968 42.667969c23.566406 0 42.667969-19.105469 42.667969-42.667969-.03125-23.550781-19.117187-42.640625-42.667969-42.667969zm0 68.265625c-14.136718 0-25.597656-11.460937-25.597656-25.597656s11.460938-25.601562 25.597656-25.601562c14.140625 0 25.601563 11.464843 25.601563 25.601562s-11.460938 25.597656-25.601563 25.597656zm0 0"/></g></svg>