<?xml version="1.0" encoding="iso-8859-1"?>
<!-- Generator: Adobe Illustrator 19.0.0, SVG Export Plug-In . SVG Version: 6.00 Build 0)  -->
<svg version="1.1" id="Capa_1" xmlns="http://www.w3.org/2000/svg" xmlns:xlink="http://www.w3.org/1999/xlink" x="0px" y="0px"
	 viewBox="0 0 511.879 511.879" style="enable-background:new 0 0 511.879 511.879;" xml:space="preserve">
<path style="fill:#94C1FF;" d="M228.016,183.957c-5.757-0.156-11.755-0.078-18.074,0.164l5.999-24.158h15.996l5.756,23.112
	l-0.078,1.125C234.499,184.035,231.296,183.957,228.016,183.957z"/>
<g>
	<path style="fill:#D7E9FF;" d="M379.902,231.945H235.936v-7.998l-7.998-33.75l0.078-6.241c3.28,0,6.483,0.078,9.6,0.242
		c26.313,1.117,45.825,4.874,54.308,7.756C331.515,205.155,379.902,231.945,379.902,231.945z"/>
	<path style="fill:#D7E9FF;" d="M130.922,200.75l-1.359-4.717c28.79-7.756,56.307-11.115,80.379-11.912
		c6.319-0.242,12.317-0.32,18.074-0.164l-0.078,6.241l7.998,33.75v7.998H99.968C106.927,219.385,126.204,204.35,130.922,200.75z"/>
	<polygon style="fill:#D7E9FF;" points="15.988,247.941 51.901,248.02 35.983,263.938 11.989,263.938 	"/>
	<rect x="163.949" y="263.94" style="fill:#D7E9FF;" width="15.996" height="15.996"/>
	<rect x="179.949" y="279.93" style="fill:#D7E9FF;" width="15.997" height="15.996"/>
	<rect x="195.949" y="263.94" style="fill:#D7E9FF;" width="15.996" height="15.996"/>
	<rect x="211.939" y="279.93" style="fill:#D7E9FF;" width="15.996" height="15.996"/>
	<rect x="227.939" y="263.94" style="fill:#D7E9FF;" width="15.996" height="15.996"/>
	<rect x="243.939" y="279.93" style="fill:#D7E9FF;" width="15.996" height="15.996"/>
	<rect x="259.929" y="263.94" style="fill:#D7E9FF;" width="15.996" height="15.996"/>
	<rect x="275.929" y="279.93" style="fill:#D7E9FF;" width="15.997" height="15.996"/>
	<rect x="291.919" y="263.94" style="fill:#D7E9FF;" width="15.996" height="15.996"/>
	<rect x="307.919" y="279.93" style="fill:#D7E9FF;" width="15.996" height="15.996"/>
	<rect x="323.919" y="263.94" style="fill:#D7E9FF;" width="15.996" height="15.996"/>
	<path style="fill:#D7E9FF;" d="M483.877,255.94c6.795,2.242,11.599,8.318,15.113,15.996h-23.111l-23.994-23.994l0.078-0.477
		C465,250.503,476.762,253.542,483.877,255.94z"/>
</g>
<path style="fill:#94C1FF;" d="M195.946,263.938v15.996h-15.997v-15.996h-15.996v15.996h15.996v15.996h15.997v-15.996h15.996v15.996
	h15.996v-15.996h15.996v15.996h15.996v-15.996h15.996v15.996h15.997v-15.996h15.996v15.996h15.996v-15.996h15.996v-15.996h-15.996
	v15.996h-15.996v-15.996h-15.996v15.996h-15.997v-15.996H259.93v15.996h-15.996v-15.996h-15.996v15.996h-15.996v-15.996H195.946z
	 M51.901,248.02l-35.914-0.078l3.999-15.996l31.993-3.999c25.83-14.958,52.23-25.111,77.583-31.915l1.359,4.717
	c-4.718,3.601-23.995,18.637-30.954,31.196h135.968h143.966c0,0,40.068,7.92,72.062,15.52l-0.078,0.477l23.994,23.994h23.111
	c5.679,12.396,7.679,28.954,8.396,39.99c0.484,6.397,0.484,10.959,0.484,11.998c0,3.998-47.988,3.998-47.988,3.998h-10.076
	c1.359-3.756,2.078-7.756,2.078-11.996c0-19.918-16.074-35.992-35.991-35.992c-19.84,0-35.992,16.074-35.992,35.992
	c0,4.24,0.719,8.24,2.078,11.996H137.881c1.359-3.756,2.077-7.756,2.077-11.996c0-19.918-16.074-35.992-35.991-35.992
	c-19.839,0-35.991,16.074-35.991,35.992c0,4.24,0.718,8.24,2.077,11.996H59.978c0,0-39.991,0-47.989-3.998
	c-7.998-4-7.998-43.99-7.998-43.99l7.998-15.996h23.995L51.901,248.02z"/>
<path style="fill:#5C9EFF;" d="M507.387,311.926c-0.718-11.036-2.718-27.595-8.396-39.99c-3.515-7.678-8.318-13.754-15.113-15.996
	c-7.115-2.398-18.878-5.437-31.914-8.475c-31.993-7.6-72.062-15.52-72.062-15.52s84.402,23.611,91.518,26.01
	c6.795,2.241,16.059,6.303,19.573,13.98c5.679,12.396,7.679,28.954,8.396,39.99c0.484,6.397,0.484,10.959,0.484,11.998
	c0,3.998-47.988,3.998-47.988,3.998h7.998c0,0,47.988,0,47.988-3.998C507.872,322.885,507.872,318.324,507.387,311.926z"/>
<path style="fill:#94C1FF;" d="M457.907,253.964c6.96,2.007,11.997,3.484,13.513,3.992c6.795,2.241,16.059,6.303,19.573,13.98h7.998
	c-3.515-7.678-8.318-13.754-15.113-15.996c-7.115-2.398-18.878-5.437-31.914-8.475l-0.078,0.477L457.907,253.964z"/>
<path style="fill:#D7E9FF;" d="M11.989,279.934l7.998-15.996l3.999-15.996l2.492-9.951l29.048-4.069
	c23.354-13.52,52.308-26.431,75.396-33.172l-1.359-4.717c-25.354,6.803-51.754,16.957-77.583,31.915l-31.993,3.999l-3.999,15.996
	l-3.999,15.996l-7.998,15.996c0,0,0,39.99,7.998,43.99c7.998,3.998,47.989,3.998,47.989,3.998h7.998c0,0-39.991,0-47.989-3.998
	C11.989,319.924,11.989,279.934,11.989,279.934z"/>
<g>
	<polygon style="fill:#FFFFFF;" points="23.978,247.958 15.988,247.941 11.989,263.938 19.987,263.938 	"/>
	<path style="fill:#FFFFFF;" d="M261.821,231.945h16.566l10.927-40.779c-3.843-1.109-9.131-2.289-15.668-3.375L261.821,231.945z"/>
	<path style="fill:#FFFFFF;" d="M282.519,231.945h4.147l10.247-38.249c-1.266-0.445-2.538-0.898-3.788-1.32L282.519,231.945z"/>
	<path style="fill:#FFFFFF;" d="M189.291,185.457c-5.584,0.5-11.263,1.117-17.089,1.937l-11.935,44.552h16.566L189.291,185.457z"/>
	<path style="fill:#FFFFFF;" d="M197.734,184.846c-1.421,0.094-2.772,0.133-4.21,0.25l-12.56,46.849h4.147L197.734,184.846z"/>
</g>
<path style="fill:#D7E9FF;" d="M139.966,315.926c0,3.678-0.562,7.279-1.601,10.716c-4.554,14.637-18.238,25.275-34.391,25.275
	c-14.958,0-27.673-9.037-33.195-21.995c-1.757-4.233-2.796-9.037-2.796-13.996c0-19.918,16.074-35.992,35.991-35.992
	S139.966,296.008,139.966,315.926z"/>
<path style="fill:#FFFFFF;" d="M78.778,329.922c-1.757-4.233-2.796-9.037-2.796-13.996c0-18.543,13.997-33.586,31.992-35.586
	c-1.328-0.156-2.624-0.406-3.999-0.406c-19.917,0-35.991,16.074-35.991,35.992c0,4.959,1.039,9.763,2.796,13.996
	c5.522,12.958,18.238,21.995,33.195,21.995c1.305,0,2.562-0.18,3.827-0.312C94.696,350.089,83.777,341.654,78.778,329.922z"/>
<path style="fill:#94C1FF;" d="M129.172,301.929c1.757,4.233,2.796,9.036,2.796,13.997c0,18.542-13.997,33.585-31.992,35.585
	c1.328,0.156,2.624,0.406,3.999,0.406c19.917,0,35.991-16.075,35.991-35.991c0-4.961-1.039-9.764-2.796-13.997
	c-5.522-12.958-18.238-21.995-33.195-21.995c-1.305,0-2.562,0.18-3.827,0.312C113.254,281.762,124.173,290.198,129.172,301.929z"/>
<path style="fill:#D7E9FF;" d="M451.893,315.926c0,3.678-0.562,7.279-1.602,10.716c-4.554,14.637-18.237,25.275-34.39,25.275
	c-14.958,0-27.674-9.037-33.195-21.995c-1.758-4.233-2.797-9.037-2.797-13.996c0-19.918,16.074-35.992,35.992-35.992
	C435.819,279.934,451.893,296.008,451.893,315.926z"/>
<path style="fill:#FFFFFF;" d="M390.705,329.922c-1.758-4.233-2.797-9.037-2.797-13.996c0-18.543,13.997-33.586,31.992-35.586
	c-1.327-0.156-2.624-0.406-3.998-0.406c-19.918,0-35.992,16.074-35.992,35.992c0,4.959,1.039,9.763,2.797,13.996
	c5.521,12.958,18.237,21.995,33.195,21.995c1.304,0,2.562-0.18,3.826-0.312C406.623,350.089,395.703,341.654,390.705,329.922z"/>
<path style="fill:#94C1FF;" d="M441.098,301.929c1.758,4.233,2.797,9.036,2.797,13.997c0,18.542-13.997,33.585-31.993,35.585
	c1.328,0.156,2.625,0.406,4,0.406c19.917,0,35.991-16.075,35.991-35.991c0-4.961-1.039-9.764-2.796-13.997
	c-5.522-12.958-18.238-21.995-33.195-21.995c-1.305,0-2.562,0.18-3.828,0.312C425.18,281.762,436.099,290.198,441.098,301.929z"/>
<g>
	<path style="fill:#116FFF;" d="M415.902,355.917c-22.05,0-39.991-17.941-39.991-39.99c0-22.05,17.941-39.991,39.991-39.991
		c22.049,0,39.99,17.941,39.99,39.991C455.892,337.975,437.951,355.917,415.902,355.917z M415.902,283.933
		c-17.645,0-31.993,14.349-31.993,31.993s14.349,31.992,31.993,31.992c17.644,0,31.992-14.349,31.992-31.992
		C447.894,298.282,433.545,283.933,415.902,283.933z"/>
	<path style="fill:#116FFF;" d="M416.144,319.924c-2.211,0-4.039-1.788-4.039-3.998c0-2.211,1.75-4,3.953-4h0.086
		c2.202,0,3.998,1.789,3.998,4C420.142,318.136,418.346,319.924,416.144,319.924z"/>
	<path style="fill:#116FFF;" d="M415.902,307.927c-2.211,0-4-1.788-4-3.999v-7.998c0-2.21,1.789-3.999,4-3.999
		c2.21,0,3.998,1.789,3.998,3.999v7.998C419.9,306.139,418.112,307.927,415.902,307.927z"/>
	<path style="fill:#116FFF;" d="M415.902,339.92c-2.211,0-4-1.789-4-4v-7.998c0-2.21,1.789-3.998,4-3.998
		c2.21,0,3.998,1.788,3.998,3.998v7.998C419.9,338.131,418.112,339.92,415.902,339.92z"/>
	<path style="fill:#116FFF;" d="M407.419,311.442c-1.023,0-2.047-0.391-2.828-1.171l-5.654-5.655c-1.562-1.562-1.562-4.093,0-5.654
		c1.562-1.562,4.092-1.562,5.654,0l5.655,5.654c1.562,1.562,1.562,4.093,0,5.655C409.465,311.051,408.442,311.442,407.419,311.442z"
		/>
	<path style="fill:#116FFF;" d="M430.039,334.062c-1.023,0-2.047-0.391-2.827-1.172l-5.655-5.654c-1.562-1.562-1.562-4.093,0-5.655
		s4.093-1.562,5.655,0l5.654,5.655c1.562,1.562,1.562,4.093,0,5.654C432.085,333.671,431.062,334.062,430.039,334.062z"/>
	<path style="fill:#116FFF;" d="M403.904,319.924h-7.998c-2.21,0-3.999-1.788-3.999-3.998c0-2.211,1.789-4,3.999-4h7.998
		c2.211,0,4,1.789,4,4C407.904,318.136,406.115,319.924,403.904,319.924z"/>
	<path style="fill:#116FFF;" d="M435.896,319.924h-7.998c-2.21,0-3.998-1.788-3.998-3.998c0-2.211,1.788-4,3.998-4h7.998
		c2.211,0,4,1.789,4,4C439.896,318.136,438.107,319.924,435.896,319.924z"/>
	<path style="fill:#116FFF;" d="M401.764,334.062c-1.023,0-2.047-0.391-2.827-1.172c-1.562-1.562-1.562-4.093,0-5.654l5.654-5.655
		c1.562-1.562,4.093-1.562,5.655,0s1.562,4.093,0,5.655l-5.655,5.654C403.81,333.671,402.788,334.062,401.764,334.062z"/>
	<path style="fill:#116FFF;" d="M424.384,311.442c-1.023,0-2.047-0.391-2.828-1.171c-1.562-1.562-1.562-4.093,0-5.655l5.655-5.654
		c1.562-1.562,4.093-1.562,5.654,0c1.562,1.562,1.562,4.092,0,5.654l-5.654,5.655C426.43,311.051,425.407,311.442,424.384,311.442z"
		/>
	<path style="fill:#116FFF;" d="M103.975,355.917c-22.05,0-39.99-17.941-39.99-39.99c0-22.05,17.94-39.991,39.99-39.991
		s39.99,17.941,39.99,39.991C143.965,337.975,126.025,355.917,103.975,355.917z M103.975,283.933
		c-17.645,0-31.992,14.349-31.992,31.993s14.348,31.992,31.992,31.992s31.992-14.349,31.992-31.992
		C135.967,298.282,121.62,283.933,103.975,283.933z"/>
	<path style="fill:#116FFF;" d="M104.217,319.924c-2.21,0-4.038-1.788-4.038-3.998c0-2.211,1.75-4,3.952-4h0.086
		c2.203,0,3.999,1.789,3.999,4C108.216,318.136,106.42,319.924,104.217,319.924z"/>
	<path style="fill:#116FFF;" d="M103.975,307.927c-2.21,0-3.999-1.788-3.999-3.999v-7.998c0-2.21,1.789-3.999,3.999-3.999
		s3.999,1.789,3.999,3.999v7.998C107.974,306.139,106.186,307.927,103.975,307.927z"/>
	<path style="fill:#116FFF;" d="M103.975,339.92c-2.21,0-3.999-1.789-3.999-4v-7.998c0-2.21,1.789-3.998,3.999-3.998
		s3.999,1.788,3.999,3.998v7.998C107.974,338.131,106.186,339.92,103.975,339.92z"/>
	<path style="fill:#116FFF;" d="M95.493,311.442c-1.023,0-2.046-0.391-2.827-1.171l-5.655-5.655c-1.562-1.562-1.562-4.093,0-5.654
		c1.562-1.562,4.093-1.562,5.655,0l5.654,5.654c1.562,1.562,1.562,4.093,0,5.655C97.539,311.051,96.516,311.442,95.493,311.442z"/>
	<path style="fill:#116FFF;" d="M118.112,334.062c-1.023,0-2.046-0.391-2.828-1.172l-5.654-5.654c-1.562-1.562-1.562-4.093,0-5.655
		s4.093-1.562,5.654,0l5.655,5.655c1.562,1.562,1.562,4.093,0,5.654C120.159,333.671,119.135,334.062,118.112,334.062z"/>
	<path style="fill:#116FFF;" d="M91.978,319.924H83.98c-2.21,0-3.999-1.788-3.999-3.998c0-2.211,1.789-4,3.999-4h7.998
		c2.21,0,3.999,1.789,3.999,4C95.977,318.136,94.188,319.924,91.978,319.924z"/>
	<path style="fill:#116FFF;" d="M123.97,319.924h-7.998c-2.21,0-3.999-1.788-3.999-3.998c0-2.211,1.789-4,3.999-4h7.998
		c2.21,0,3.999,1.789,3.999,4C127.969,318.136,126.181,319.924,123.97,319.924z"/>
	<path style="fill:#116FFF;" d="M89.838,334.062c-1.023,0-2.046-0.391-2.828-1.172c-1.562-1.562-1.562-4.093,0-5.654l5.655-5.655
		c1.562-1.562,4.093-1.562,5.654,0c1.562,1.562,1.562,4.093,0,5.655l-5.654,5.654C91.884,333.671,90.861,334.062,89.838,334.062z"/>
	<path style="fill:#116FFF;" d="M112.458,311.442c-1.023,0-2.046-0.391-2.827-1.171c-1.562-1.562-1.562-4.093,0-5.655l5.654-5.654
		c1.562-1.562,4.093-1.562,5.655,0s1.562,4.092,0,5.654l-5.655,5.655C114.504,311.051,113.481,311.442,112.458,311.442z"/>
	<path style="fill:#116FFF;" d="M459.891,331.922c-2.211,0-3.999-1.789-3.999-4c0-2.21,1.788-3.998,3.999-3.998
		c17.44,0,37.835-0.859,43.974-2.273c-0.312-21.503-5.046-56.518-21.245-61.915c-24.08-8.029-102.702-23.713-103.491-23.869
		c-0.406-0.078-0.797-0.219-1.155-0.422c-0.484-0.266-48.513-26.767-87.308-39.694c-21.979-7.342-133.234-24.026-236.679,35.656
		c-0.461,0.273-0.977,0.445-1.5,0.508l-29.274,3.663l-7.334,29.329c-0.07,0.281-0.171,0.562-0.304,0.82l-7.577,15.145
		c0.094,19.065,2.781,37.39,5.835,39.498c5.163,2.586,31.055,3.555,46.153,3.555c2.21,0,3.999,1.788,3.999,3.998
		c0,2.211-1.789,4-3.999,4c-6.835,0-41.357-0.211-49.777-4.422C0.992,322.893,0,292.704,0,279.934c0-0.617,0.148-1.234,0.422-1.789
		l7.802-15.606l7.889-31.562c0.406-1.601,1.75-2.796,3.382-2.999l31.196-3.897c105.818-60.689,219.886-43.451,242.505-35.922
		c37.226,12.411,82.59,36.976,88.097,39.983c7.943,1.585,80.168,16.105,103.858,24.002c24.799,8.271,26.728,57.033,26.728,71.78
		C511.878,327.852,511.878,331.922,459.891,331.922z"/>
	<path style="fill:#116FFF;" d="M371.912,331.922H147.964c-2.21,0-3.999-1.789-3.999-4c0-2.21,1.789-3.998,3.999-3.998h223.947
		c2.211,0,3.999,1.788,3.999,3.998C375.911,330.133,374.123,331.922,371.912,331.922z"/>
	<path style="fill:#116FFF;" d="M235.944,227.947c-1.812,0-3.452-1.234-3.89-3.078l-7.998-33.757
		c-0.508-2.148,0.82-4.304,2.968-4.812c2.172-0.539,4.304,0.812,4.812,2.968l7.998,33.758c0.508,2.148-0.82,4.304-2.968,4.812
		C236.553,227.915,236.249,227.947,235.944,227.947z"/>
	<path style="fill:#116FFF;" d="M363.914,235.945H99.976c-2.21,0-3.999-1.789-3.999-3.999c0-2.211,1.789-3.999,3.999-3.999h263.938
		c2.211,0,3.999,1.788,3.999,3.999C367.913,234.156,366.125,235.945,363.914,235.945z"/>
	<path style="fill:#116FFF;" d="M99.976,235.945c-0.664,0-1.336-0.164-1.953-0.508c-1.921-1.078-2.617-3.515-1.539-5.444
		c8.326-14.91,32.102-32.516,33.109-33.258c1.78-1.312,4.288-0.929,5.592,0.844c1.312,1.781,0.929,4.288-0.843,5.593
		c-0.234,0.172-23.394,17.332-30.876,30.727C102.733,235.203,101.375,235.945,99.976,235.945z"/>
	<path style="fill:#116FFF;" d="M499.006,275.935h-23.119c-2.21,0-3.999-1.788-3.999-3.999s1.789-3.999,3.999-3.999h23.119
		c2.211,0,3.999,1.788,3.999,3.999S501.217,275.935,499.006,275.935z"/>
	<path style="fill:#116FFF;" d="M475.887,275.935c-1.023,0-2.046-0.391-2.827-1.171l-15.996-15.997
		c-1.562-1.562-1.562-4.093,0-5.654c1.562-1.562,4.092-1.562,5.654,0l15.996,15.996c1.562,1.562,1.562,4.093,0,5.655
		C477.933,275.544,476.911,275.935,475.887,275.935z"/>
	<path style="fill:#116FFF;" d="M51.987,252.043h-0.008l-35.992-0.102c-2.21-0.008-3.999-1.805-3.991-4.007
		c0.008-2.21,1.797-3.991,3.999-3.991h0.008l35.992,0.102c2.21,0.008,3.999,1.804,3.991,4.007
		C55.979,250.26,54.19,252.043,51.987,252.043z"/>
	<path style="fill:#116FFF;" d="M35.991,267.937c-1.031,0-2.054-0.391-2.835-1.18c-1.562-1.569-1.546-4.101,0.016-5.654
		l15.996-15.895c1.578-1.562,4.108-1.546,5.655,0.016c1.562,1.57,1.546,4.101-0.016,5.655l-15.996,15.895
		C38.03,267.546,37.006,267.937,35.991,267.937z"/>
	<path style="fill:#116FFF;" d="M35.991,267.937H11.997c-2.21,0-3.999-1.788-3.999-3.999s1.789-3.999,3.999-3.999h23.995
		c2.21,0,3.999,1.788,3.999,3.999S38.202,267.937,35.991,267.937z"/>
	<path style="fill:#116FFF;" d="M507.45,315.926h-7.568c-2.21,0-3.999-1.789-3.999-4c0-2.21,1.789-3.999,3.999-3.999h7.568
		c2.211,0,3.999,1.789,3.999,3.999C511.449,314.137,509.661,315.926,507.45,315.926z"/>
	<path style="fill:#116FFF;" d="M179.957,283.933h-15.996c-2.21,0-3.999-1.788-3.999-3.999v-15.996c0-2.211,1.789-3.999,3.999-3.999
		h15.996c2.21,0,4,1.788,4,3.999v15.996C183.957,282.145,182.168,283.933,179.957,283.933z M167.96,275.935h7.998v-7.998h-7.998
		V275.935z"/>
	<path style="fill:#116FFF;" d="M195.954,299.929h-15.997c-2.21,0-3.999-1.788-3.999-3.999v-15.996c0-2.21,1.789-3.999,3.999-3.999
		h15.997c2.21,0,3.999,1.789,3.999,3.999v15.996C199.953,298.141,198.164,299.929,195.954,299.929z M183.957,291.931h7.998v-7.998
		h-7.998V291.931z"/>
	<path style="fill:#116FFF;" d="M211.95,283.933h-15.996c-2.211,0-3.999-1.788-3.999-3.999v-15.996c0-2.211,1.788-3.999,3.999-3.999
		h15.996c2.21,0,3.999,1.788,3.999,3.999v15.996C215.949,282.145,214.16,283.933,211.95,283.933z M199.953,275.935h7.998v-7.998
		h-7.998V275.935z"/>
	<path style="fill:#116FFF;" d="M227.946,299.929H211.95c-2.21,0-3.999-1.788-3.999-3.999v-15.996c0-2.21,1.789-3.999,3.999-3.999
		h15.996c2.21,0,3.999,1.789,3.999,3.999v15.996C231.945,298.141,230.156,299.929,227.946,299.929z M215.949,291.931h7.998v-7.998
		h-7.998V291.931z"/>
	<path style="fill:#116FFF;" d="M243.942,283.933h-15.996c-2.21,0-3.999-1.788-3.999-3.999v-15.996c0-2.211,1.789-3.999,3.999-3.999
		h15.996c2.21,0,3.999,1.788,3.999,3.999v15.996C247.941,282.145,246.152,283.933,243.942,283.933z M231.945,275.935h7.998v-7.998
		h-7.998V275.935z"/>
	<path style="fill:#116FFF;" d="M259.938,299.929h-15.996c-2.21,0-3.999-1.788-3.999-3.999v-15.996c0-2.21,1.789-3.999,3.999-3.999
		h15.996c2.211,0,3.999,1.789,3.999,3.999v15.996C263.937,298.141,262.149,299.929,259.938,299.929z M247.941,291.931h7.998v-7.998
		h-7.998V291.931z"/>
	<path style="fill:#116FFF;" d="M275.934,283.933h-15.996c-2.21,0-3.999-1.788-3.999-3.999v-15.996c0-2.211,1.789-3.999,3.999-3.999
		h15.996c2.211,0,3.999,1.788,3.999,3.999v15.996C279.933,282.145,278.145,283.933,275.934,283.933z M263.937,275.935h7.998v-7.998
		h-7.998V275.935z"/>
	<path style="fill:#116FFF;" d="M291.931,299.929h-15.997c-2.21,0-3.999-1.788-3.999-3.999v-15.996c0-2.21,1.789-3.999,3.999-3.999
		h15.997c2.21,0,3.998,1.789,3.998,3.999v15.996C295.929,298.141,294.141,299.929,291.931,299.929z M279.933,291.931h7.998v-7.998
		h-7.998V291.931z"/>
	<path style="fill:#116FFF;" d="M307.927,283.933h-15.996c-2.211,0-4-1.788-4-3.999v-15.996c0-2.211,1.789-3.999,4-3.999h15.996
		c2.21,0,3.999,1.788,3.999,3.999v15.996C311.926,282.145,310.137,283.933,307.927,283.933z M295.929,275.935h7.998v-7.998h-7.998
		V275.935z"/>
	<path style="fill:#116FFF;" d="M323.923,299.929h-15.996c-2.211,0-4-1.788-4-3.999v-15.996c0-2.21,1.789-3.999,4-3.999h15.996
		c2.21,0,3.999,1.789,3.999,3.999v15.996C327.922,298.141,326.133,299.929,323.923,299.929z M311.926,291.931h7.998v-7.998h-7.998
		V291.931z"/>
	<path style="fill:#116FFF;" d="M339.919,283.933h-15.996c-2.211,0-3.999-1.788-3.999-3.999v-15.996
		c0-2.211,1.788-3.999,3.999-3.999h15.996c2.21,0,3.999,1.788,3.999,3.999v15.996C343.918,282.145,342.129,283.933,339.919,283.933z
		 M327.922,275.935h7.998v-7.998h-7.998V275.935z"/>
	<path style="fill:#116FFF;" d="M235.944,179.958c-1.796,0-3.429-1.21-3.882-3.03l-3.999-15.996
		c-0.531-2.14,0.766-4.312,2.913-4.851c2.094-0.516,4.312,0.766,4.851,2.914l3.999,15.996c0.531,2.14-0.766,4.312-2.913,4.851
		C236.592,179.919,236.264,179.958,235.944,179.958z"/>
	<path style="fill:#116FFF;" d="M211.95,179.958c-0.32,0-0.641-0.039-0.969-0.117c-2.148-0.539-3.444-2.71-2.913-4.851l3.999-15.996
		c0.531-2.148,2.679-3.421,4.851-2.914c2.147,0.539,3.444,2.71,2.913,4.851l-3.999,15.996
		C215.378,178.747,213.746,179.958,211.95,179.958z"/>
	<path style="fill:#116FFF;" d="M231.945,163.961h-15.996c-2.21,0-3.999-1.788-3.999-3.999c0-2.21,1.789-3.999,3.999-3.999h15.996
		c2.21,0,3.999,1.789,3.999,3.999C235.944,162.173,234.155,163.961,231.945,163.961z"/>
</g>
<g>
</g>
<g>
</g>
<g>
</g>
<g>
</g>
<g>
</g>
<g>
</g>
<g>
</g>
<g>
</g>
<g>
</g>
<g>
</g>
<g>
</g>
<g>
</g>
<g>
</g>
<g>
</g>
<g>
</g>
</svg>
