<svg width="20" height="20" viewBox="0 0 20 20" xmlns="http://www.w3.org/2000/svg">
<path d="M16.2109 0H3.78906C2.49672 0 1.44531 1.05141 1.44531 2.34375V17.6562C1.44531 18.9486 2.49672 20 3.78906 20H16.2109C17.5033 20 18.5547 18.9486 18.5547 17.6562V2.34375C18.5547 1.05141 17.5033 0 16.2109 0ZM16.9922 17.6562C16.9922 18.087 16.6417 18.4375 16.2109 18.4375H3.78906C3.35828 18.4375 3.00781 18.087 3.00781 17.6562V6.71875H16.9922V17.6562ZM16.9922 5.15625H3.00781V2.34375C3.00781 1.91297 3.35828 1.5625 3.78906 1.5625H16.2109C16.6417 1.5625 16.9922 1.91297 16.9922 2.34375V5.15625Z" />
<path d="M15.2344 11.8H13.6719V16.3281H15.2344V11.8Z" />
<path d="M6.36719 8.82812H4.80469V10.3906H6.36719V8.82812Z" />
<path d="M9.33594 8.82812H7.77344V10.3906H9.33594V8.82812Z"/>
<path d="M12.2656 8.82812H10.7031V10.3906H12.2656V8.82812Z" />
<path d="M6.36719 11.7969H4.80469V13.3594H6.36719V11.7969Z" />
<path d="M9.33594 11.7969H7.77344V13.3594H9.33594V11.7969Z" />
<path d="M12.2656 11.7969H10.7031V13.3594H12.2656V11.7969Z" />
<path d="M15.2344 8.82812H13.6719V10.3906H15.2344V8.82812Z" />
<path d="M6.36719 14.7656H4.80469V16.3281H6.36719V14.7656Z" />
<path d="M9.33594 14.7656H7.77344V16.3281H9.33594V14.7656Z" />
<path d="M12.2656 14.7656H10.7031V16.3281H12.2656V14.7656Z" />
</svg>
