<svg width="400" height="247" viewBox="0 0 400 247" fill="none" xmlns="http://www.w3.org/2000/svg">
<mask id="mask0" mask-type="alpha" maskUnits="userSpaceOnUse" x="0" y="0" width="400" height="247">
<rect width="400" height="247" rx="8" fill="white"/>
</mask>
<g mask="url(#mask0)">
<path d="M27.0527 17.6466C26.6575 17.4038 26.3516 17.0119 26.2281 16.5269C25.9748 15.537 26.5722 14.5309 27.562 14.2805L30.7627 13.4684C31.753 13.2172 32.7602 13.8152 33.0135 14.8051C33.2667 15.795 32.6694 16.8011 31.6791 17.0523L28.4783 17.8644C27.9737 17.9922 27.4645 17.8995 27.0527 17.6466Z" fill="#FF4E61"/>
<path d="M76.6365 38.4584C76.2404 38.2152 75.9349 37.8246 75.8105 37.3391C75.5573 36.3492 76.1546 35.3431 77.1449 35.0918L80.3457 34.2798C81.3355 34.0294 82.3435 34.6279 82.5968 35.6178C82.8505 36.6068 82.2527 37.6138 81.2629 37.8642L78.0621 38.6762C77.5575 38.8041 77.0483 38.7114 76.6365 38.4584Z" fill="#7C9AF2"/>
<path d="M29.0893 115.868C28.6933 115.625 28.3882 115.233 28.2634 114.748C28.0102 113.759 28.6075 112.752 29.5978 112.501L32.7986 111.689C33.7884 111.439 34.7969 112.036 35.0501 113.026C35.3033 114.016 34.706 115.022 33.7157 115.274L30.5149 116.086C30.0104 116.213 29.5012 116.121 29.0893 115.868Z" fill="#FFAA00"/>
<path d="M11.1757 50.5041L4.35348 50.1267C2.58421 50.029 1.74427 47.9154 2.93206 46.55L7.5114 41.2876C7.98336 40.7454 8.16733 40.0103 8.00316 39.3204L6.41041 32.622C5.9971 30.8851 7.74247 29.3728 9.36469 30.0632L15.6155 32.7245C16.26 32.9989 17.003 32.9315 17.6043 32.5433L23.4424 28.7818C24.9564 27.807 26.8748 28.9854 26.6898 30.7765L25.9735 37.684C25.9 38.3964 26.1758 39.0896 26.7111 39.5398L31.9119 43.9125C33.2603 45.0468 32.7005 47.2873 30.9644 47.704L24.2705 49.3124C23.5809 49.4779 23.0076 49.9738 22.7374 50.6399L20.114 57.1038C19.434 58.7811 17.169 58.9875 16.282 57.4536L12.8607 51.5391C12.5083 50.9295 11.878 50.5424 11.1757 50.5041Z" fill="#FFD02F"/>
<path d="M-18.5359 100.764C-19.4072 100.229 -19.6805 99.0903 -19.1463 98.2208L-4.02126 73.5966C-3.48714 72.727 -2.34752 72.4551 -1.47625 72.9903C-0.604982 73.5255 -0.332225 74.6649 -0.866346 75.5344L-15.9914 100.159C-16.5255 101.028 -17.6647 101.299 -18.5359 100.764Z" fill="#5C73BC"/>
<path d="M1.70255 67.8428L1.67837 67.8279C0.807098 67.2928 0.533507 66.1528 1.06763 65.2833C1.60175 64.4137 2.74086 64.1427 3.61296 64.6783L3.63714 64.6932C4.50841 65.2284 4.78168 66.3669 4.24756 67.2365C3.71344 68.1061 2.57382 68.3779 1.70255 67.8428Z" fill="#7C9AF2"/>
<path d="M5.02924 62.4265C5.02674 62.4249 5.02424 62.4234 5.02257 62.4224L4.99756 62.407C4.12833 61.8685 3.86044 60.7286 4.3979 59.8611C4.93517 58.9958 6.07037 58.7292 6.93831 59.2623L6.94581 59.2669L6.96999 59.2818C7.83922 59.8203 8.10711 60.9601 7.56965 61.8277C7.03373 62.6927 5.89718 62.9596 5.02924 62.4265Z" fill="#FFAA00"/>
<path d="M-10.1428 23.4447C-10.5547 23.1917 -10.8676 22.7794 -10.9817 22.2716L-17.2208 -5.54232C-17.4445 -6.53923 -16.818 -7.52741 -15.8211 -7.74828C-14.8237 -7.96997 -13.834 -7.34147 -13.6099 -6.34539L-7.36991 21.469C-7.14576 22.4651 -7.7736 23.4536 -8.7705 23.6744C-9.25979 23.7831 -9.74681 23.6879 -10.1428 23.4447Z" fill="#FF4E61"/>
<path d="M47.0144 57.6999C46.6184 57.4567 46.3128 57.0661 46.1893 56.5811C45.9361 55.5912 46.5334 54.5851 47.5237 54.3339L75.1527 47.3242C76.143 47.0729 77.1511 47.6715 77.4043 48.6613C77.6575 49.6512 77.0602 50.6573 76.0699 50.9086L48.44 57.9177C47.9355 58.0456 47.4263 57.9529 47.0144 57.6999Z" fill="#FFAA00"/>
<path d="M37.6984 60.0792C37.2899 59.8283 36.9788 59.4206 36.863 58.9174L36.8562 58.8892C36.6264 57.893 37.2479 56.9018 38.2431 56.6742C39.2398 56.4463 40.233 57.069 40.4625 58.0638L40.4693 58.092C40.6983 59.0876 40.0776 60.0794 39.0815 60.3065C38.5897 60.4192 38.0978 60.3245 37.6984 60.0792Z" fill="#FF4E61"/>
<path d="M31.6216 61.6211C31.2097 61.3681 30.8968 60.9559 30.7827 60.448L30.776 60.4198C30.5532 59.4234 31.1797 58.4352 32.1771 58.2135C33.1745 57.9918 34.1641 58.6203 34.3883 59.6164L34.395 59.6446C34.6178 60.641 33.9913 61.6292 32.9939 61.8509C32.5046 61.9595 32.0176 61.8644 31.6216 61.6211Z" fill="#FFAA00"/>
<path d="M50.3525 27.0963C50.0874 26.9334 49.8598 26.702 49.7002 26.4103C49.2079 25.5142 49.5353 24.3905 50.4308 23.901L75.6069 10.1276C76.5024 9.63817 77.6269 9.96672 78.1192 10.8628C78.6115 11.7588 78.2841 12.8826 77.3886 13.372L52.2125 27.1454C51.6092 27.4751 50.9011 27.4333 50.3525 27.0963Z" fill="#62D38F"/>
<path d="M41.8682 31.7539C41.5922 31.5844 41.3577 31.3418 41.1964 31.0341L41.1832 31.0088C40.7102 30.1039 41.0598 28.987 41.966 28.5156C42.8719 28.0428 43.9894 28.3957 44.4633 29.3011L44.4765 29.3264C44.9504 30.2318 44.6 31.3483 43.6946 31.8202C43.0955 32.1318 42.4051 32.0837 41.8682 31.7539Z" fill="#FFAA00"/>
<path d="M36.3307 34.7831C36.0531 34.6125 35.8171 34.3667 35.6569 34.0574L35.6437 34.0321C35.1735 33.1244 35.5278 32.0092 36.4346 31.5405C37.3423 31.0723 38.4587 31.429 38.9294 32.3359L38.9425 32.3612C39.4128 33.2689 39.0584 34.3841 38.1508 34.8523C37.5537 35.1607 36.8652 35.1114 36.3307 34.7831Z" fill="#2DC471"/>
<path d="M16.0551 6.02982C15.5065 5.69285 15.149 5.08019 15.1708 4.3922L16.0726 -24.2902C16.1048 -25.3111 16.9586 -26.1103 17.9796 -26.0769C19.0014 -26.0429 19.8042 -25.1888 19.772 -24.1679L18.8702 4.51447C18.838 5.53532 17.9837 6.33543 16.9627 6.30197C16.6296 6.29101 16.3202 6.19268 16.0551 6.02982Z" fill="#7C9AF2"/>
<path d="M15.737 15.703C15.2017 15.3742 14.8461 14.781 14.8517 14.1083C14.8611 13.0872 15.6973 12.2679 16.7185 12.2786L16.7478 12.2794C17.7699 12.2906 18.591 13.1262 18.5816 14.1473C18.573 15.1689 17.7373 15.9873 16.7147 15.977L16.6862 15.9766C16.3384 15.9727 16.0138 15.873 15.737 15.703Z" fill="#FF4E61"/>
<path d="M15.5386 22.012C15.005 21.6842 14.6504 21.095 14.6541 20.4234C14.6591 19.4019 15.492 18.5806 16.5136 18.5869L16.5421 18.5873C17.5648 18.5954 18.3888 19.4282 18.3838 20.4497C18.3779 21.4707 17.5458 22.2925 16.5234 22.2856L16.4949 22.2853C16.1439 22.2829 15.8171 22.183 15.5386 22.012Z" fill="#FFAA00"/>
<path d="M40.5345 91.6537L35.7032 92.09C34.4503 92.204 33.6486 90.8154 34.3462 89.7413L37.038 85.6002C37.3151 85.1733 37.3708 84.6414 37.1867 84.1765L35.3973 79.6678C34.9331 78.4979 36.0081 77.2637 37.2168 77.5787L41.8761 78.7948C42.3553 78.9195 42.8722 78.7958 43.2553 78.4638L46.9806 75.2405C47.9469 74.4038 49.4136 75.0296 49.4622 76.2984L49.65 81.1917C49.67 81.6957 49.9331 82.1518 50.3541 82.4104L54.4463 84.9274C55.508 85.5807 55.339 87.2018 54.16 87.6706L49.6173 89.4783C49.1489 89.6651 48.7955 90.0703 48.6725 90.5621L47.4761 95.3422C47.1651 96.5814 45.5941 96.9574 44.8175 95.9784L41.8221 92.2028C41.5142 91.8142 41.0328 91.6091 40.5345 91.6537Z" fill="#FFD02F"/>
<path d="M-9.72748 106.175C-10.5987 105.639 -10.872 104.501 -10.3379 103.631C-2.84947 91.4397 7.08646 86.1909 14.1031 83.9338C21.7324 81.4811 27.5677 81.9286 27.8128 81.9484C28.8316 82.0321 29.5906 82.9258 29.5072 83.9439C29.4249 84.9603 28.5345 85.7165 27.516 85.6341C27.4283 85.6273 22.0239 85.2428 15.0881 87.5049C5.81514 90.5284 -1.6777 96.6063 -7.18298 105.569C-7.7171 106.439 -8.85621 106.71 -9.72748 106.175Z" fill="#FF6C00"/>
<path d="M51.5351 9.98672C53.0118 7.58272 52.3128 4.46932 49.975 3.03333C47.6363 1.59684 44.5442 2.38162 43.0675 4.78562C41.5909 7.18963 42.2885 10.3033 44.6272 11.7398C46.965 13.1758 50.0585 12.3907 51.5351 9.98672Z" fill="#FFD02F"/>
<path d="M22.6158 106.915C24.0925 104.511 23.3944 101.398 21.0565 99.9622C18.7179 98.5257 15.6257 99.3105 14.1491 101.715C12.6725 104.119 13.3705 107.231 15.7092 108.668C18.047 110.104 21.1392 109.319 22.6158 106.915Z" fill="#7C9AF2"/>
<path d="M59.3995 43.2718C60.5838 41.3438 60.0234 38.8461 58.1483 37.6944C56.2732 36.5426 53.792 37.1721 52.6078 39.1001C51.4235 41.0281 51.9844 43.525 53.8595 44.6767C55.7346 45.8285 58.2153 45.1999 59.3995 43.2718Z" fill="#FF4E61"/>
<g opacity="0.2">
<path d="M342.274 190.151C341.921 190.452 341.454 190.621 340.954 190.589C339.935 190.523 339.163 189.644 339.231 188.625L339.449 185.33C339.517 184.311 340.397 183.538 341.417 183.604C342.437 183.669 343.209 184.549 343.141 185.568L342.922 188.863C342.888 189.382 342.642 189.838 342.274 190.151Z" fill="#FF4E61"/>
<path d="M377.411 149.444C377.057 149.745 376.591 149.915 376.091 149.883C375.071 149.817 374.3 148.938 374.367 147.918L374.586 144.623C374.654 143.605 375.535 142.831 376.555 142.897C377.574 142.962 378.346 143.842 378.278 144.861L378.059 148.156C378.025 148.675 377.779 149.13 377.411 149.444Z" fill="#5C73BC"/>
<path d="M312.545 208.78C312.192 209.08 311.725 209.251 311.226 209.218C310.206 209.152 309.434 208.273 309.502 207.253L309.72 203.959C309.789 202.94 310.67 202.167 311.689 202.232C312.708 202.298 313.48 203.178 313.412 204.196L313.193 207.491C313.159 208.011 312.913 208.466 312.545 208.78Z" fill="#FFAA00"/>
<path d="M329.752 248.605C329.399 248.906 328.932 249.076 328.433 249.043C327.413 248.978 326.641 248.098 326.709 247.079L326.927 243.785C326.994 242.765 327.876 241.992 328.895 242.057C329.915 242.123 330.687 243.002 330.619 244.022L330.401 247.317C330.367 247.836 330.12 248.292 329.752 248.605Z" fill="#2DC471"/>
<path d="M368.604 215.419L366.133 221.789C365.493 223.441 363.223 223.586 362.292 222.034L358.706 216.05C358.336 215.434 357.694 215.031 356.987 214.974L350.125 214.415C348.345 214.271 347.447 212.143 348.606 210.814L353.071 205.694C353.532 205.166 353.698 204.439 353.515 203.747L351.745 197.031C351.287 195.29 353.001 193.83 354.647 194.56L360.993 197.38C361.648 197.67 362.393 197.622 362.986 197.253L368.754 193.661C370.25 192.729 372.207 193.955 372.066 195.735L371.524 202.598C371.468 203.305 371.762 204.004 372.311 204.467L377.646 208.962C379.03 210.128 378.526 212.345 376.792 212.714L370.109 214.137C369.421 214.283 368.857 214.763 368.604 215.419Z" fill="#FFD02F"/>
<path d="M407.199 259.228C406.421 259.891 405.254 259.798 404.592 259.021L385.859 237.017C385.197 236.24 385.291 235.072 386.07 234.409C386.848 233.746 388.016 233.84 388.678 234.617L407.411 256.621C408.073 257.398 407.978 258.565 407.199 259.228Z" fill="#5C73BC"/>
<path d="M382.159 229.793L382.138 229.812C381.359 230.474 380.19 230.382 379.529 229.605C378.867 228.828 378.962 227.661 379.741 226.997L379.763 226.979C380.542 226.316 381.709 226.408 382.37 227.186C383.032 227.963 382.938 229.13 382.159 229.793Z" fill="#5C73BC"/>
<path d="M378.038 224.953C378.036 224.955 378.034 224.957 378.032 224.958L378.01 224.977C377.229 225.637 376.062 225.539 375.404 224.76C374.747 223.981 374.845 222.819 375.621 222.159L375.627 222.153L375.649 222.135C376.43 221.475 377.597 221.573 378.255 222.352C378.912 223.13 378.814 224.293 378.038 224.953Z" fill="#FFAA00"/>
<path d="M336.275 227.315C335.907 227.628 335.418 227.798 334.9 227.749L306.521 225.073C305.504 224.977 304.758 224.076 304.856 223.06C304.954 222.042 305.858 221.296 306.875 221.391L335.255 224.067C336.271 224.162 337.017 225.065 336.918 226.081C336.87 226.58 336.629 227.014 336.275 227.315Z" fill="#FF4E61"/>
<path d="M345.845 228.232C345.49 228.534 345.021 228.704 344.519 228.67C343.5 228.601 342.731 227.719 342.801 226.7L342.803 226.671C342.874 225.653 343.757 224.882 344.777 224.951C345.797 225.019 346.566 225.901 346.495 226.921L346.493 226.949C346.457 227.466 346.212 227.92 345.845 228.232Z" fill="#FFAA00"/>
<path d="M352.087 228.82C351.733 229.122 351.266 229.291 350.766 229.259C349.747 229.192 348.975 228.313 349.044 227.294L349.045 227.265C349.113 226.245 349.995 225.473 351.014 225.539C352.033 225.604 352.805 226.484 352.737 227.503L352.735 227.532C352.701 228.051 352.455 228.507 352.087 228.82Z" fill="#5C73BC"/>
<path d="M386.539 183.567C386.185 183.868 385.719 184.038 385.22 184.005C384.2 183.94 383.428 183.06 383.496 182.041L385.382 153.599C385.45 152.58 386.331 151.806 387.35 151.872C388.37 151.937 389.142 152.817 389.074 153.836L387.187 182.279C387.153 182.798 386.907 183.254 386.539 183.567Z" fill="#FFAA00"/>
<path d="M385.918 193.162C385.553 193.473 385.069 193.642 384.555 193.597L384.526 193.594C383.507 193.505 382.757 192.607 382.849 191.59C382.94 190.572 383.84 189.82 384.857 189.91L384.886 189.912C385.904 190.002 386.654 190.9 386.562 191.917C386.517 192.42 386.275 192.858 385.918 193.162Z" fill="#FF4E61"/>
<path d="M385.503 199.417C385.135 199.731 384.647 199.901 384.128 199.852L384.099 199.85C383.083 199.753 382.337 198.852 382.435 197.835C382.533 196.817 383.437 196.071 384.453 196.166L384.482 196.168C385.499 196.265 386.245 197.167 386.147 198.184C386.099 198.682 385.857 199.116 385.503 199.417Z" fill="#FFAA00"/>
<path d="M358.471 170.921C358.234 171.122 357.944 171.267 357.617 171.329C356.613 171.519 355.645 170.86 355.457 169.857L350.153 141.654C349.964 140.651 350.625 139.684 351.629 139.493C352.634 139.302 353.601 139.961 353.789 140.964L359.094 169.167C359.221 169.843 358.962 170.503 358.471 170.921Z" fill="#62D38F"/>
<path d="M360.275 180.43C360.028 180.64 359.725 180.788 359.382 180.846L359.354 180.85C358.347 181.02 357.393 180.342 357.226 179.334C357.056 178.327 357.738 177.373 358.746 177.203L358.774 177.198C359.781 177.028 360.734 177.706 360.903 178.713C361.014 179.38 360.754 180.021 360.275 180.43Z" fill="#FFAA00"/>
<path d="M361.441 186.633C361.193 186.844 360.886 186.992 360.542 187.049L360.514 187.054C359.505 187.22 358.554 186.538 358.389 185.53C358.225 184.522 358.91 183.571 359.918 183.404L359.946 183.4C360.955 183.234 361.906 183.916 362.07 184.924C362.178 185.587 361.918 186.226 361.441 186.633Z" fill="#2DC471"/>
<path d="M327.824 197.013C327.334 197.43 326.641 197.581 325.993 197.347L298.998 187.612C298.038 187.265 297.542 186.206 297.89 185.246C298.238 184.284 299.299 183.785 300.26 184.132L327.255 193.867C328.215 194.214 328.712 195.274 328.364 196.234C328.25 196.548 328.061 196.811 327.824 197.013Z" fill="#5C73BC"/>
<path d="M336.924 200.31C336.445 200.717 335.771 200.872 335.133 200.658C334.165 200.333 333.645 199.284 333.971 198.317L333.981 198.289C334.308 197.321 335.357 196.799 336.325 197.124C337.294 197.448 337.813 198.496 337.487 199.465L337.478 199.492C337.366 199.822 337.171 200.099 336.924 200.31Z" fill="#FF4E61"/>
<path d="M342.861 202.451C342.385 202.857 341.715 203.012 341.077 202.801C340.107 202.48 339.584 201.433 339.906 200.464L339.915 200.437C340.24 199.467 341.287 198.941 342.256 199.262C343.225 199.584 343.749 200.629 343.426 201.599L343.417 201.626C343.306 201.959 343.11 202.239 342.861 202.451Z" fill="#FFAA00"/>
<path d="M416.82 200.238L415.74 204.967C415.46 206.194 413.892 206.526 413.086 205.53L409.982 201.689C409.662 201.293 409.173 201.076 408.674 201.107L403.833 201.413C402.577 201.492 401.736 200.088 402.409 199.036L405.008 194.982C405.275 194.565 405.317 194.035 405.12 193.568L403.208 189.028C402.712 187.85 403.761 186.649 404.982 186.996L409.693 188.332C410.179 188.469 410.694 188.36 411.07 188.04L414.73 184.927C415.68 184.12 417.169 184.782 417.25 186.049L417.563 190.928C417.596 191.431 417.871 191.893 418.301 192.162L422.476 194.779C423.558 195.458 423.429 197.068 422.258 197.504L417.741 199.183C417.276 199.356 416.932 199.75 416.82 200.238Z" fill="#FFD02F"/>
<path d="M415.071 252.526C414.292 253.189 413.125 253.097 412.464 252.32C403.189 241.425 401.273 230.353 401.298 222.982C401.327 214.968 403.559 209.558 403.654 209.331C404.049 208.388 405.133 207.943 406.076 208.337C407.017 208.73 407.46 209.811 407.067 210.754C407.033 210.835 404.995 215.855 404.999 223.151C405.004 232.904 408.464 241.91 415.283 249.919C415.944 250.696 415.849 251.863 415.071 252.526Z" fill="#FF4E61"/>
<path d="M366.231 256.464L371.004 257.524C372.242 257.799 373.217 256.537 372.655 255.388L370.485 250.96C370.262 250.505 370.273 249.973 370.516 249.54L372.869 245.334C373.48 244.243 372.56 242.888 371.314 243.041L366.506 243.63C366.011 243.69 365.511 243.501 365.169 243.126L361.851 239.466C360.991 238.517 359.447 238.941 359.239 240.184L358.437 244.976C358.354 245.47 358.034 245.885 357.58 246.085L353.176 248.029C352.033 248.534 351.998 250.151 353.117 250.766L357.43 253.139C357.874 253.383 358.176 253.829 358.237 254.329L358.832 259.19C358.987 260.451 360.509 261.026 361.409 260.163L364.875 256.837C365.233 256.495 365.74 256.355 366.231 256.464Z" fill="#FFD02F"/>
<path d="M399.338 265.92C398.56 266.583 397.393 266.49 396.731 265.713C391.86 259.992 386.129 255.841 379.699 253.378C378.745 253.013 378.27 251.943 378.638 250.989C379.005 250.035 380.076 249.558 381.029 249.923C388.043 252.612 394.274 257.116 399.55 263.313C400.212 264.09 400.117 265.257 399.338 265.92Z" fill="#FFAA00"/>
<path d="M342.568 164.5C340.739 162.352 337.562 162.053 335.473 163.831C333.383 165.611 333.173 168.794 335.001 170.942C336.83 173.09 340.007 173.391 342.097 171.612C344.186 169.833 344.397 166.648 342.568 164.5Z" fill="#FFD02F"/>
<path d="M345.765 238.1C344.299 236.377 341.752 236.137 340.075 237.564C338.4 238.991 338.23 241.543 339.697 243.266C341.164 244.989 343.712 245.23 345.387 243.803C347.064 242.376 347.232 239.823 345.765 238.1Z" fill="#5C73BC"/>
<path d="M325.086 166.412C323.619 164.688 321.072 164.448 319.396 165.874C317.72 167.302 317.551 169.854 319.018 171.578C320.485 173.301 323.032 173.541 324.708 172.114C326.384 170.687 326.553 168.134 325.086 166.412Z" fill="#FF4E61"/>
<path d="M376.653 167.324C375.186 165.601 372.638 165.361 370.962 166.788C369.287 168.214 369.117 170.768 370.584 172.491C372.051 174.214 374.599 174.454 376.274 173.027C377.95 171.601 378.12 169.047 376.653 167.324Z" fill="#FF4E61"/>
<path d="M314.218 181.035C313.864 181.336 313.398 181.506 312.897 181.473C311.877 181.408 311.106 180.529 311.174 179.509L311.392 176.215C311.46 175.195 312.341 174.422 313.36 174.488C314.38 174.554 315.151 175.433 315.084 176.452L314.866 179.747C314.832 180.266 314.585 180.722 314.218 181.035Z" fill="#FF4E61"/>
</g>
</g>
</svg>
