<svg width="301" height="247" viewBox="0 0 301 247" fill="none" xmlns="http://www.w3.org/2000/svg">
<mask id="mask0" mask-type="alpha" maskUnits="userSpaceOnUse" x="0" y="0" width="281" height="247">
<rect width="281" height="247" rx="8" fill="white"/>
</mask>
<g mask="url(#mask0)">
<path d="M61.4331 18.0221C61.0371 17.7789 60.7315 17.3883 60.6072 16.9028C60.3539 15.9129 60.9512 14.9068 61.9416 14.6556L65.1423 13.8435C66.1321 13.5931 67.1402 14.1916 67.3934 15.1815C67.6471 16.1705 67.0493 17.1775 66.0595 17.4279L62.8587 18.24C62.3541 18.3678 61.845 18.2751 61.4331 18.0221Z" fill="#7C9AF2"/>
<path d="M13.8855 95.4315C13.4894 95.1883 13.1844 94.7969 13.0595 94.3122C12.8063 93.3223 13.4036 92.3162 14.3939 92.065L17.5947 91.2529C18.5845 91.0025 19.5931 91.6002 19.8463 92.5901C20.0995 93.5799 19.5022 94.586 18.5119 94.8373L15.3111 95.6493C14.8065 95.7772 14.2973 95.6845 13.8855 95.4315Z" fill="#FFAA00"/>
<path d="M-4.02814 30.0679L-10.8504 29.6904C-12.6196 29.5927 -13.4596 27.4791 -12.2718 26.1137L-7.69245 20.8513C-7.2205 20.3091 -7.03653 19.574 -7.2007 18.8841L-8.79344 12.1857C-9.20676 10.4489 -7.46139 8.93653 -5.83917 9.62695L0.411641 12.2883C1.05612 12.5626 1.79912 12.4953 2.40044 12.1071L8.23852 8.34555C9.7525 7.37072 11.671 8.54911 11.486 10.3403L10.7696 17.2477C10.6961 17.9601 10.9719 18.6533 11.5072 19.1036L16.708 23.4762C18.0564 24.6105 17.4967 26.8511 15.7606 27.2677L9.06665 28.8761C8.37705 29.0416 7.80372 29.5375 7.53353 30.2036L4.91017 36.6675C4.23014 38.3448 1.96519 38.5512 1.07812 37.0173L-2.34313 31.1029C-2.69558 30.4933 -3.32589 30.1061 -4.02814 30.0679Z" fill="#FFD02F"/>
<path d="M31.8108 37.2636C31.4148 37.0204 31.1092 36.6298 30.9857 36.1448C30.7325 35.1549 31.3298 34.1488 32.3201 33.8976L59.9491 26.8879C60.9394 26.6366 61.9475 27.2352 62.2007 28.2251C62.4539 29.2149 61.8566 30.221 60.8663 30.4723L33.2364 37.4815C32.7318 37.6093 32.2227 37.5166 31.8108 37.2636Z" fill="#FFAA00"/>
<path d="M22.4948 39.643C22.0863 39.392 21.7752 38.9843 21.6594 38.4811L21.6526 38.4529C21.4227 37.4567 22.0442 36.4655 23.0395 36.2379C24.0362 36.01 25.0294 36.6327 25.2589 37.6275L25.2657 37.6557C25.4947 38.6514 24.874 39.6431 23.8779 39.8702C23.3861 39.983 22.8942 39.8883 22.4948 39.643Z" fill="#FF4E61"/>
<path d="M16.4182 41.1849C16.0064 40.9319 15.6935 40.5196 15.5794 40.0118L15.5726 39.9835C15.3498 38.9871 15.9763 37.9989 16.9737 37.7772C17.9711 37.5555 18.9608 38.184 19.1849 39.1801L19.1917 39.2084C19.4145 40.2048 18.788 41.1929 17.7906 41.4146C17.3013 41.5232 16.8143 41.4281 16.4182 41.1849Z" fill="#FFAA00"/>
<path d="M35.1487 6.66001C34.8835 6.49716 34.656 6.26569 34.4964 5.97398C34.0041 5.07794 34.3315 3.95417 35.227 3.46471L60.4031 -10.3087C61.2986 -10.7981 62.423 -10.4696 62.9153 -9.57351C63.4076 -8.67747 63.0802 -7.5537 62.1848 -7.06425L37.0086 6.70912C36.4054 7.03882 35.6973 6.99699 35.1487 6.66001Z" fill="#62D38F"/>
<path d="M26.6646 11.3176C26.3886 11.1481 26.1541 10.9055 25.9928 10.5978L25.9796 10.5725C25.5065 9.66767 25.8562 8.55069 26.7624 8.07928C27.6683 7.60653 28.7858 7.95947 29.2597 8.86486L29.2729 8.89015C29.7468 9.79554 29.3964 10.912 28.491 11.3839C27.8919 11.6956 27.2015 11.6474 26.6646 11.3176Z" fill="#FFAA00"/>
<path d="M21.1271 14.3468C20.8495 14.1763 20.6135 13.9305 20.4532 13.6211L20.4401 13.5959C19.9699 12.6882 20.3242 11.5729 21.231 11.1042C22.1387 10.636 23.255 10.9928 23.7258 11.8996L23.7389 11.9249C24.2091 12.8326 23.8548 13.9479 22.9471 14.4161C22.3501 14.7244 21.6616 14.6751 21.1271 14.3468Z" fill="#2DC471"/>
<path d="M0.334999 1.57567C-0.198603 1.24791 -0.553262 0.658742 -0.549539 -0.0128625C-0.544492 -1.03435 0.288395 -1.85565 1.30996 -1.84933L1.33848 -1.84901C2.3612 -1.84084 3.18519 -1.00809 3.18014 0.0134003C3.17426 1.03438 2.3422 1.85618 1.3198 1.84936L1.29129 1.84904C0.94026 1.84659 0.613473 1.74672 0.334999 1.57567Z" fill="#FFAA00"/>
<path d="M25.3309 71.2174L20.4996 71.6537C19.2467 71.7678 18.445 70.3791 19.1426 69.3051L21.8344 65.1639C22.1115 64.737 22.1672 64.2051 21.9831 63.7402L20.1937 59.2315C19.7295 58.0616 20.8045 56.8275 22.0132 57.1424L26.6725 58.3585C27.1517 58.4832 27.6686 58.3595 28.0517 58.0275L31.7769 54.8042C32.7433 53.9675 34.21 54.5933 34.2586 55.8621L34.4464 60.7554C34.4664 61.2594 34.7294 61.7155 35.1505 61.9741L39.2427 64.4911C40.3044 65.1444 40.1354 66.7655 38.9564 67.2343L34.4137 69.0421C33.9453 69.2288 33.5919 69.6341 33.4689 70.1259L32.2725 74.9059C31.9615 76.1451 30.3905 76.5211 29.6139 75.5421L26.6185 71.7665C26.3106 71.378 25.8292 71.1728 25.3309 71.2174Z" fill="#FFD02F"/>
<path d="M-24.9311 85.7382C-25.8024 85.2031 -26.0756 84.0645 -25.5415 83.1949C-18.0531 71.0035 -8.11715 65.7546 -1.10054 63.4975C6.5288 61.0448 12.3641 61.4923 12.6092 61.5121C13.628 61.5958 14.387 62.4895 14.3036 63.5076C14.2213 64.5241 13.3308 65.2802 12.3123 65.1978C12.2247 65.191 6.82032 64.8065 -0.115496 67.0686C-9.38847 70.0921 -16.8813 76.17 -22.3866 85.1328C-22.9207 86.0024 -24.0598 86.2734 -24.9311 85.7382Z" fill="#FF6C00"/>
<path d="M7.41198 86.4788C8.88861 84.0748 8.19053 80.9619 5.85269 79.526C3.51402 78.0895 0.421852 78.8742 -1.05478 81.2783C-2.5314 83.6823 -1.83333 86.7951 0.505347 88.2316C2.84319 89.6676 5.93535 88.8828 7.41198 86.4788Z" fill="#7C9AF2"/>
<path d="M44.1959 22.8356C45.3802 20.9075 44.8198 18.4099 42.9447 17.2581C41.0696 16.1063 38.5884 16.7358 37.4042 18.6638C36.2199 20.5919 36.7808 23.0887 38.6559 24.2405C40.531 25.3922 43.0116 24.7636 44.1959 22.8356Z" fill="#FF4E61"/>
<g opacity="0.2">
<path d="M268.274 190.151C267.921 190.452 267.454 190.621 266.954 190.589C265.935 190.523 265.163 189.644 265.231 188.625L265.449 185.33C265.517 184.311 266.397 183.538 267.417 183.604C268.437 183.669 269.209 184.549 269.141 185.568L268.922 188.863C268.888 189.382 268.642 189.838 268.274 190.151Z" fill="#FF4E61"/>
<path d="M238.545 208.78C238.192 209.08 237.725 209.251 237.226 209.218C236.206 209.152 235.434 208.273 235.502 207.253L235.72 203.959C235.789 202.94 236.67 202.167 237.689 202.232C238.708 202.298 239.48 203.178 239.412 204.196L239.193 207.491C239.159 208.011 238.913 208.466 238.545 208.78Z" fill="#FFAA00"/>
<path d="M255.752 248.605C255.399 248.906 254.932 249.076 254.433 249.043C253.413 248.978 252.641 248.098 252.709 247.079L252.927 243.785C252.994 242.765 253.875 241.992 254.895 242.057C255.915 242.123 256.686 243.002 256.619 244.022L256.4 247.317C256.366 247.836 256.12 248.292 255.752 248.605Z" fill="#2DC471"/>
<path d="M294.604 215.419L292.133 221.789C291.493 223.441 289.223 223.586 288.292 222.034L284.706 216.05C284.336 215.434 283.694 215.031 282.987 214.974L276.125 214.415C274.346 214.271 273.448 212.143 274.606 210.814L279.072 205.694C279.532 205.166 279.698 204.439 279.515 203.747L277.745 197.031C277.287 195.29 279.001 193.83 280.647 194.56L286.994 197.38C287.648 197.67 288.393 197.622 288.987 197.253L294.754 193.661C296.25 192.729 298.207 193.955 298.066 195.735L297.524 202.598C297.468 203.305 297.762 204.004 298.312 204.467L303.646 208.962C305.031 210.128 304.526 212.345 302.793 212.714L296.11 214.137C295.421 214.283 294.858 214.763 294.604 215.419Z" fill="#FFD02F"/>
<path d="M262.275 227.315C261.907 227.628 261.418 227.798 260.9 227.749L232.521 225.073C231.503 224.977 230.758 224.076 230.856 223.06C230.954 222.042 231.858 221.296 232.875 221.391L261.254 224.067C262.271 224.162 263.017 225.065 262.918 226.081C262.87 226.58 262.629 227.014 262.275 227.315Z" fill="#FF4E61"/>
<path d="M271.845 228.232C271.49 228.534 271.021 228.704 270.519 228.67C269.5 228.601 268.731 227.719 268.801 226.7L268.804 226.671C268.875 225.653 269.758 224.882 270.778 224.951C271.797 225.019 272.566 225.901 272.495 226.921L272.493 226.949C272.457 227.466 272.212 227.92 271.845 228.232Z" fill="#FFAA00"/>
<path d="M278.087 228.82C277.733 229.122 277.266 229.291 276.766 229.258C275.747 229.192 274.975 228.313 275.044 227.294L275.045 227.265C275.113 226.245 275.995 225.472 277.014 225.539C278.033 225.604 278.805 226.484 278.737 227.503L278.735 227.532C278.701 228.051 278.455 228.507 278.087 228.82Z" fill="#5C73BC"/>
<path d="M284.471 170.921C284.234 171.122 283.944 171.267 283.617 171.329C282.613 171.519 281.645 170.86 281.457 169.857L276.153 141.654C275.964 140.651 276.625 139.684 277.629 139.493C278.634 139.302 279.601 139.961 279.789 140.964L285.094 169.167C285.221 169.843 284.962 170.503 284.471 170.921Z" fill="#62D38F"/>
<path d="M253.824 197.013C253.334 197.43 252.64 197.581 251.993 197.347L224.998 187.612C224.037 187.265 223.542 186.206 223.889 185.246C224.238 184.284 225.299 183.785 226.259 184.132L253.254 193.867C254.215 194.214 254.711 195.274 254.364 196.234C254.25 196.548 254.061 196.811 253.824 197.013Z" fill="#5C73BC"/>
<path d="M262.924 200.31C262.445 200.717 261.771 200.872 261.133 200.658C260.165 200.333 259.645 199.284 259.971 198.317L259.981 198.289C260.308 197.321 261.357 196.799 262.325 197.123C263.294 197.448 263.813 198.496 263.487 199.465L263.478 199.492C263.366 199.822 263.171 200.099 262.924 200.31Z" fill="#FF4E61"/>
<path d="M268.861 202.451C268.385 202.857 267.715 203.012 267.077 202.801C266.107 202.48 265.584 201.433 265.906 200.464L265.915 200.437C266.24 199.467 267.287 198.941 268.256 199.262C269.225 199.584 269.749 200.629 269.426 201.599L269.417 201.626C269.306 201.959 269.11 202.239 268.861 202.451Z" fill="#FFAA00"/>
<path d="M292.231 256.464L297.004 257.524C298.243 257.799 299.218 256.536 298.655 255.388L296.485 250.96C296.262 250.505 296.273 249.973 296.516 249.54L298.869 245.334C299.48 244.243 298.561 242.888 297.314 243.041L292.506 243.63C292.011 243.69 291.511 243.501 291.169 243.126L287.851 239.466C286.991 238.517 285.447 238.941 285.239 240.184L284.437 244.976C284.354 245.47 284.034 245.885 283.581 246.085L279.176 248.029C278.034 248.534 277.999 250.151 279.117 250.766L283.43 253.139C283.874 253.383 284.176 253.829 284.237 254.329L284.833 259.19C284.988 260.451 286.509 261.026 287.409 260.163L290.876 256.837C291.233 256.495 291.74 256.355 292.231 256.464Z" fill="#FFD02F"/>
<path d="M268.568 164.5C266.739 162.352 263.563 162.053 261.473 163.831C259.384 165.611 259.173 168.794 261.002 170.942C262.831 173.09 266.007 173.391 268.097 171.612C270.186 169.833 270.397 166.648 268.568 164.5Z" fill="#FFD02F"/>
<path d="M271.765 238.1C270.299 236.377 267.752 236.137 266.075 237.564C264.4 238.991 264.23 241.543 265.697 243.266C267.164 244.989 269.712 245.23 271.387 243.803C273.064 242.376 273.232 239.823 271.765 238.1Z" fill="#5C73BC"/>
<path d="M251.087 166.412C249.619 164.688 247.072 164.448 245.397 165.874C243.72 167.302 243.551 169.854 245.018 171.578C246.485 173.301 249.032 173.541 250.709 172.114C252.384 170.687 252.553 168.134 251.087 166.412Z" fill="#FF4E61"/>
<path d="M240.218 181.035C239.864 181.336 239.398 181.506 238.897 181.473C237.878 181.408 237.107 180.529 237.174 179.509L237.393 176.215C237.46 175.195 238.341 174.422 239.36 174.488C240.38 174.554 241.152 175.433 241.084 176.452L240.866 179.747C240.832 180.266 240.585 180.722 240.218 181.035Z" fill="#FF4E61"/>
</g>
</g>
</svg>
